<svg width="345" height="180" viewBox="0 0 345 180" fill="none" xmlns="http://www.w3.org/2000/svg">
<g clip-path="url(#clip0_516_278)">
<path d="M0 62.2985V124.597H8.19731H16.3946V81.2496C16.3946 57.4002 16.4659 37.8309 16.5372 37.7358C16.8223 37.4504 17.345 37.8784 17.345 38.4253C17.345 38.7344 17.4638 38.996 17.5826 38.996C17.7252 38.996 17.8202 39.1624 17.8202 39.3527C17.8202 39.5429 17.9153 39.8996 18.0341 40.1373C18.2479 40.5178 18.8895 41.992 19.6498 43.7516C19.8399 44.2034 20.1012 44.7741 20.22 44.9881C20.3388 45.2258 20.4339 45.5825 20.4339 45.7727C20.4339 45.963 20.5527 46.1294 20.6715 46.1294C20.814 46.1294 20.9091 46.3434 20.9091 46.5812C20.9091 46.8428 21.0279 47.1281 21.1467 47.1994C21.2893 47.2708 21.3843 47.5561 21.3843 47.8177C21.3843 48.0554 21.5031 48.2694 21.6219 48.2694C21.7645 48.2694 21.8595 48.4121 21.8595 48.6023C21.8595 48.7926 22.2397 49.7675 22.6911 50.7424C23.1426 51.741 23.5227 52.6684 23.5227 52.7873C23.5227 52.9299 23.6415 53.0251 23.7603 53.0251C23.9029 53.0251 23.9979 53.1915 23.9979 53.3817C23.9979 53.572 24.1167 53.9762 24.2831 54.2853C24.8533 55.4029 24.9483 55.6406 24.9483 55.9973C24.9483 56.1875 25.0196 56.354 25.1384 56.354C25.2335 56.354 25.4948 56.8533 25.7324 57.4953C25.97 58.1136 26.3502 59.0409 26.5878 59.564C26.8254 60.0871 27.2293 60.9907 27.5145 61.5852C27.7758 62.1796 28.2748 63.2734 28.6074 64.0343C28.9401 64.7952 29.2252 65.5561 29.2252 65.7463C29.2252 65.9365 29.344 66.103 29.4628 66.103C29.6054 66.103 29.7004 66.317 29.7004 66.5548C29.7004 66.8163 29.8192 67.1017 29.938 67.173C30.0806 67.2443 30.1756 67.5297 30.1756 67.7912C30.1756 68.029 30.2944 68.243 30.4132 68.243C30.5558 68.243 30.6508 68.457 30.6508 68.7186C30.6508 68.9801 30.7696 69.1941 30.8884 69.1941C31.031 69.1941 31.126 69.3606 31.126 69.5508C31.126 69.741 31.2211 70.0977 31.3399 70.3355C31.8388 71.2391 32.7893 73.498 32.7893 73.712C32.7893 73.8546 32.9081 73.9498 33.0269 73.9498C33.1694 73.9498 33.2645 74.1638 33.2645 74.4015C33.2645 74.6393 33.5733 75.424 33.9298 76.1136C34.2862 76.8269 34.9039 78.1347 35.2603 79.062C35.6405 79.9656 36.0444 80.8216 36.1632 80.9643C36.2583 81.0832 36.3533 81.3685 36.3533 81.6063C36.3533 81.8441 36.4721 82.0343 36.5909 82.0343C36.7335 82.0343 36.8285 82.2483 36.8285 82.4861C36.8285 82.7476 36.9473 83.033 37.0661 83.1043C37.2087 83.1756 37.3037 83.461 37.3037 83.7225C37.3037 83.9603 37.4225 84.1743 37.5413 84.1743C37.6839 84.1743 37.7789 84.3883 37.7789 84.6499C37.7789 84.9114 37.8977 85.1255 38.0165 85.1255C38.1591 85.1255 38.2541 85.2919 38.2541 85.4821C38.2541 85.6723 38.3492 86.029 38.468 86.2668C38.6105 86.4808 38.9907 87.3606 39.3709 88.2166C39.7273 89.0726 40.1074 89.786 40.2025 89.8335C40.2975 89.8811 40.3926 90.0951 40.3926 90.3091C40.3926 90.5231 40.8678 91.6882 41.4618 92.9009C42.0558 94.0898 42.531 95.2549 42.531 95.4451C42.531 95.6354 42.6498 95.8731 42.7686 95.9445C42.9112 96.0158 43.0062 96.3011 43.0062 96.5627C43.0062 96.8005 43.125 97.0145 43.2438 97.0145C43.3864 97.0145 43.4814 97.2285 43.4814 97.49C43.4814 97.7516 43.6002 97.9656 43.719 97.9656C43.8616 97.9656 43.9566 98.1321 43.9566 98.3223C43.9566 98.5125 44.0517 98.8692 44.1705 99.107C44.2893 99.321 44.5744 99.9392 44.7882 100.462C45.0258 100.985 45.406 101.841 45.6436 102.341C45.905 102.864 46.095 103.435 46.095 103.601C46.095 103.767 46.1663 103.91 46.2851 103.91C46.5227 103.91 47.0455 105.099 47.0455 105.622C47.0455 105.86 47.1643 106.05 47.2831 106.05C47.4256 106.05 47.5207 106.264 47.5207 106.502C47.5207 106.763 47.6395 107.049 47.7583 107.12C47.9008 107.191 47.9959 107.477 47.9959 107.738C47.9959 107.976 48.1147 108.19 48.2335 108.19C48.376 108.19 48.4711 108.357 48.4711 108.571C48.4711 108.785 48.6136 109.236 48.8037 109.569C48.9938 109.926 49.3264 110.639 49.5403 111.162C49.7779 111.686 50.1818 112.637 50.4907 113.302C50.7758 113.944 51.2273 114.919 51.4411 115.442C51.6787 115.966 52.1777 117.036 52.5341 117.797C52.9143 118.581 53.2231 119.342 53.2231 119.532C53.2231 119.699 53.3419 119.841 53.4607 119.841C53.6033 119.841 53.6983 120.103 53.6983 120.436C53.6983 120.769 53.8171 121.03 53.9359 121.03C54.0785 121.03 54.1736 121.244 54.1736 121.506C54.1736 121.767 54.2924 121.981 54.4112 121.981C54.5537 121.981 54.6488 122.124 54.6488 122.314C54.6488 122.505 54.8864 123.099 55.1715 123.622L55.6942 124.597H63.7252H71.7562V62.2985V-3.8147e-05H63.5589H55.3616V41.4927C55.3616 78.206 55.314 82.9854 55.0052 82.9854C54.8151 82.9854 54.6488 82.7714 54.6488 82.5099C54.6488 82.2483 54.5537 82.0343 54.4112 82.0343C54.2924 82.0343 54.1736 81.7727 54.1736 81.4398C54.1736 81.107 54.0785 80.8454 53.9359 80.8454C53.8171 80.8454 53.6983 80.6314 53.6983 80.3698C53.6983 80.1083 53.6033 79.8943 53.4607 79.8943C53.3419 79.8943 53.2231 79.7516 53.2231 79.5852C53.2231 79.3236 51.8213 75.852 51.2986 74.8533C51.1798 74.6155 51.0847 74.2589 51.0847 74.0686C51.0847 73.8784 50.9897 73.712 50.8471 73.712C50.7283 73.712 50.6095 73.498 50.6095 73.2364C50.6095 72.9749 50.5145 72.7609 50.3719 72.7609C50.2531 72.7609 50.1343 72.5944 50.1343 72.3804C50.1343 72.1664 49.8017 71.2866 49.3977 70.4068C48.9938 69.5508 48.3998 68.243 48.0671 67.5297C47.7345 66.8163 47.3781 66.0317 47.2593 65.8177C47.1405 65.5799 47.0455 65.2232 47.0455 65.033C47.0455 64.8428 46.9504 64.6763 46.8078 64.6763C46.689 64.6763 46.5702 64.4623 46.5702 64.2245C46.5702 63.963 46.4752 63.7252 46.3802 63.6776C46.2614 63.6301 45.7862 62.5601 45.2872 61.276C44.7882 60.0158 44.2893 58.9696 44.1705 58.9696C44.0517 58.9696 43.9566 58.7794 43.9566 58.5416C43.9566 58.3276 43.6477 57.4953 43.2676 56.7107C42.1271 54.3804 41.343 52.5019 41.343 52.169C41.343 51.9788 41.2479 51.8362 41.1054 51.8362C40.9866 51.8362 40.8678 51.6221 40.8678 51.3606C40.8678 51.099 40.7727 50.885 40.6302 50.885C40.5114 50.885 40.3926 50.671 40.3926 50.4332C40.3926 50.1717 40.2975 49.8864 40.155 49.815C40.0362 49.7437 39.9174 49.4583 39.9174 49.1968C39.9174 48.959 39.8223 48.745 39.6798 48.745C39.561 48.745 39.4421 48.531 39.4421 48.2932C39.4421 48.0317 39.3471 47.7701 39.2283 47.6988C39.1095 47.6274 38.9432 47.2708 38.8481 46.9141C38.7769 46.5336 38.2779 45.3923 37.7789 44.3461C37.3037 43.2998 36.7335 42.0634 36.5196 41.6116C35.7118 39.7331 34.6663 37.4266 34.4525 37.0462C34.3099 36.8084 34.2149 36.4517 34.2149 36.2615C34.2149 36.0713 34.1198 35.9048 33.9773 35.9048C33.8585 35.9048 33.7397 35.6908 33.7397 35.4293C33.7397 35.1677 33.6446 34.9537 33.5021 34.9537C33.3833 34.9537 33.2645 34.6922 33.2645 34.3593C33.2645 34.0264 33.1694 33.7648 33.0269 33.7648C32.9081 33.7648 32.7893 33.6222 32.7893 33.4319C32.7893 33.2655 32.4091 32.3144 31.9576 31.3157C31.5062 30.317 31.126 29.3421 31.126 29.1519C31.126 28.9379 31.031 28.7714 30.8884 28.7714C30.7696 28.7714 30.6508 28.5574 30.6508 28.2959C30.6508 28.0343 30.5558 27.8203 30.4132 27.8203C30.2944 27.8203 30.1756 27.6776 30.1756 27.4874C30.1756 27.2972 29.9618 26.7503 29.7242 26.2272C29.4628 25.7278 29.0589 24.8243 28.8213 24.206C28.5837 23.564 28.3223 23.0647 28.2273 23.0647C28.1085 23.0647 28.0372 22.8507 28.0372 22.6129C28.0372 22.3513 27.9421 22.066 27.7996 21.9947C27.6808 21.9233 27.562 21.638 27.562 21.3764C27.562 21.1387 27.4669 20.9247 27.3244 20.9247C27.2056 20.9247 27.0868 20.7344 27.0868 20.4967C27.0868 20.2589 26.9917 19.9735 26.8967 19.8309C26.7779 19.712 26.3977 18.856 26.0176 17.9524C25.6374 17.0251 25.1384 15.9313 24.9008 15.5033C24.6632 15.0753 24.4731 14.5759 24.4731 14.3857C24.4731 14.1955 24.3781 14.029 24.2355 14.029C24.1167 14.029 23.9979 13.7675 23.9979 13.4346C23.9979 13.1017 23.9029 12.8401 23.7603 12.8401C23.6415 12.8401 23.5227 12.6974 23.5227 12.5072C23.5227 12.317 23.3326 11.7701 23.0713 11.247C22.8337 10.7477 22.3347 9.65385 21.9545 8.79784C21.5744 7.94183 21.1942 7.20471 21.0992 7.18094C20.9804 7.13338 20.9091 6.94315 20.9091 6.75293C20.9091 6.56271 20.814 6.22981 20.6952 5.99203C20.125 4.9458 19.0083 2.30643 18.8657 1.78332C18.7944 1.45042 18.6281 1.11753 18.5093 1.0462C18.3905 0.974861 18.2955 0.713303 18.2955 0.451744C18.2955 0.166405 18.1291 -3.8147e-05 17.8202 -3.8147e-05C17.3213 -3.8147e-05 17.2025 0.451744 17.5589 1.1413C17.6777 1.35531 17.8915 1.80709 18.0341 2.13998C18.1767 2.47288 18.6519 3.56667 19.1271 4.61291C19.5785 5.63536 19.9587 6.63404 19.9587 6.80049C19.9587 6.99072 20.0775 7.13338 20.1963 7.13338C20.3388 7.13338 20.4339 7.34738 20.4339 7.58517C20.4339 7.84673 20.5527 8.13206 20.6715 8.20339C20.814 8.27473 20.9091 8.56007 20.9091 8.82162C20.9091 9.0594 21.0279 9.27341 21.1467 9.27341C21.2893 9.27341 21.3843 9.43986 21.3843 9.6063C21.3843 9.79652 21.6457 10.4623 21.9783 11.0805C22.3109 11.6988 22.5723 12.317 22.5723 12.4597C22.5723 12.6023 23 13.5772 23.5227 14.6235C24.0455 15.6697 24.4731 16.7159 24.4731 16.9299C24.4731 17.1677 24.5919 17.3579 24.7107 17.3579C24.8533 17.3579 24.9483 17.5006 24.9483 17.6433C24.9483 17.8097 25.2335 18.5469 25.5899 19.2602C25.9225 19.9735 26.3027 20.7582 26.4215 20.9722C26.5165 21.21 26.6116 21.5667 26.6116 21.7569C26.6116 21.9471 26.7304 22.1136 26.8492 22.1136C26.9917 22.1136 27.0868 22.3276 27.0868 22.5891C27.0868 22.8507 27.2056 23.0647 27.3244 23.0647C27.4669 23.0647 27.562 23.2311 27.562 23.4214C27.562 23.6116 27.657 23.9683 27.7758 24.206C27.8946 24.42 28.156 24.9907 28.3461 25.4425C28.5599 25.8943 29.0351 26.9881 29.439 27.8916C29.843 28.7714 30.1756 29.6512 30.1756 29.8414C30.1756 30.0317 30.2944 30.1981 30.4132 30.1981C30.5558 30.1981 30.6508 30.4121 30.6508 30.6737C30.6508 30.9352 30.7696 31.1492 30.8884 31.1492C31.031 31.1492 31.126 31.3632 31.126 31.601C31.126 31.8626 31.2448 32.1479 31.3636 32.2192C31.4824 32.2906 31.6012 32.5759 31.6012 32.8375C31.6012 33.0753 31.72 33.2893 31.8388 33.2893C31.9814 33.2893 32.0764 33.4795 32.0764 33.7173C32.0764 33.955 32.2428 34.3593 32.4328 34.6208C32.6229 34.8586 32.7893 35.2628 32.7893 35.4768C32.7893 35.7146 32.9081 35.9048 33.0269 35.9048C33.1694 35.9048 33.2645 36.1664 33.2645 36.4993C33.2645 36.8322 33.3833 37.0938 33.5021 37.0938C33.6446 37.0938 33.7397 37.2602 33.7397 37.4504C33.7397 37.7833 34.1674 38.7107 34.4525 38.996C34.5238 39.0673 34.7138 39.5429 34.9039 40.066C35.2128 40.922 36.5434 43.9418 37.0899 44.9881C37.2087 45.2258 37.3037 45.5825 37.3037 45.7727C37.3037 45.963 37.4225 46.1294 37.5413 46.1294C37.6839 46.1294 37.7789 46.3434 37.7789 46.605C37.7789 46.8665 37.874 47.0805 37.969 47.0805C38.064 47.0805 38.3017 47.4848 38.468 47.9603C39.0857 49.7675 39.561 50.885 39.751 50.885C39.8461 50.885 39.9174 51.099 39.9174 51.3606C39.9174 51.6221 40.0362 51.8362 40.155 51.8362C40.2975 51.8362 40.3926 52.0264 40.3926 52.2642C40.3926 52.4782 40.8202 53.5482 41.343 54.6182C41.8419 55.6882 42.3409 56.8295 42.4359 57.1624C42.5072 57.5191 42.6736 57.852 42.7924 57.9233C42.9112 57.9947 43.0062 58.2562 43.0062 58.5178C43.0062 58.7556 43.125 58.9696 43.2438 58.9696C43.3864 58.9696 43.4814 59.1836 43.4814 59.4451C43.4814 59.7067 43.6002 59.9207 43.719 59.9207C43.8616 59.9207 43.9566 60.1347 43.9566 60.3725C43.9566 60.634 44.0754 60.9194 44.1942 60.9907C44.3368 61.062 44.4318 61.3474 44.4318 61.6089C44.4318 61.8467 44.5031 62.0607 44.6219 62.0607C44.7169 62.0607 44.907 62.4174 45.0496 62.8216C45.6674 64.6525 46.2376 65.9841 46.4039 66.0554C46.499 66.103 46.5702 66.3408 46.5702 66.6023C46.5702 66.8401 46.689 67.0541 46.8078 67.0541C46.9504 67.0541 47.0455 67.2681 47.0455 67.5059C47.0455 67.7675 47.1643 68.0528 47.2831 68.1241C47.4256 68.1955 47.5207 68.4808 47.5207 68.7186C47.5207 68.9564 47.5919 69.1941 47.7107 69.2417C47.9483 69.3368 49.1839 71.9762 49.1839 72.4042C49.1839 72.5944 49.3027 72.7609 49.4215 72.7609C49.564 72.7609 49.6591 72.9273 49.6591 73.1175C49.6591 73.3078 49.8729 73.8309 50.1343 74.3064C50.3957 74.782 50.6095 75.3051 50.6095 75.4953C50.6095 75.6856 50.6808 75.852 50.7996 75.852C50.8946 75.852 51.1085 76.2562 51.251 76.7793C51.5124 77.564 52.843 80.6076 53.4845 81.8441C53.6033 82.0819 53.6983 82.4385 53.6983 82.6288C53.6983 82.819 53.8171 82.9854 53.9359 82.9854C54.0785 82.9854 54.1736 83.1994 54.1736 83.461C54.1736 83.7225 54.2924 83.9365 54.4112 83.9365C54.5537 83.9365 54.6488 84.1981 54.6488 84.5072C54.6488 84.8163 54.7913 85.1255 54.9576 85.173C55.3378 85.3157 55.5279 95.8256 55.124 95.8256C54.9814 95.8256 54.7676 95.5402 54.625 95.1836C54.2924 94.28 53.7934 93.21 52.6054 90.6657C52.0351 89.4531 51.5599 88.3593 51.5599 88.2166C51.5599 88.0739 51.4649 87.7886 51.3461 87.5508C51.2273 87.3368 51.0372 86.885 50.8946 86.5521C50.7521 86.2192 50.1818 84.9828 49.6591 83.8177C49.1126 82.6288 48.4948 81.2496 48.3048 80.7265C48.0909 80.2034 47.8295 79.6803 47.7107 79.5376C47.6157 79.4187 47.5207 79.1334 47.5207 78.8956C47.5207 78.6578 47.4256 78.4676 47.2831 78.4676C47.1643 78.4676 47.0455 78.206 47.0455 77.8731C47.0455 77.5402 46.9504 77.2787 46.8078 77.2787C46.689 77.2787 46.5702 77.0647 46.5702 76.8031C46.5702 76.5416 46.4752 76.3276 46.3326 76.3276C46.2138 76.3276 46.095 76.1611 46.095 75.9947C46.095 75.8044 45.7149 74.8295 45.2634 73.8071C44.812 72.8084 44.4318 71.8335 44.4318 71.6671C44.4318 71.4768 44.3368 71.3342 44.1942 71.3342C44.0754 71.3342 43.9566 71.1202 43.9566 70.8824C43.9566 70.6208 43.8616 70.3355 43.719 70.2642C43.6002 70.1928 43.4814 69.9075 43.4814 69.6459C43.4814 69.4081 43.3864 69.1941 43.2438 69.1941C43.125 69.1941 43.0062 69.0039 43.0062 68.7661C43.0062 68.5521 42.8399 68.1479 42.626 67.8863C42.4359 67.6248 42.1746 67.0303 42.032 66.531C41.9132 66.0317 41.6994 65.6274 41.5806 65.6274C41.438 65.6274 41.343 65.4372 41.343 65.1994C41.343 64.6763 40.8202 63.4874 40.5826 63.4874C40.4638 63.4874 40.3926 63.321 40.3926 63.1307C40.3926 62.9405 40.2975 62.5838 40.1787 62.3461C39.656 61.3949 38.2541 58.2562 38.2541 58.066C38.2541 57.7331 37.6601 56.5918 37.4938 56.5918C37.375 56.5918 37.3037 56.3302 37.3037 55.9973C37.3037 55.6644 37.2087 55.4029 37.0661 55.4029C36.9473 55.4029 36.8285 55.2602 36.8285 55.0938C36.8285 54.8084 36.2583 53.5006 35.1415 51.2893C34.9039 50.7661 34.6901 50.2192 34.6901 50.029C34.6901 49.8388 34.595 49.6961 34.4525 49.6961C34.3337 49.6961 34.2149 49.4346 34.2149 49.1017C34.2149 48.7688 34.1198 48.5072 33.9773 48.5072C33.8585 48.5072 33.7397 48.2932 33.7397 48.0317C33.7397 47.7701 33.6446 47.5561 33.5021 47.5561C33.3833 47.5561 33.2645 47.3897 33.2645 47.2232C33.2645 47.033 32.8843 46.0581 32.4328 45.0356C31.9814 44.0369 31.6012 43.062 31.6012 42.8956C31.6012 42.7054 31.5062 42.5627 31.3636 42.5627C31.2448 42.5627 31.126 42.3487 31.126 42.0871C31.126 41.8256 31.031 41.6116 30.8884 41.6116C30.7696 41.6116 30.6508 41.3976 30.6508 41.136C30.6508 40.8745 30.5558 40.6605 30.4132 40.6605C30.2944 40.6605 30.1756 40.3989 30.1756 40.066C30.1756 39.7331 30.0806 39.4716 29.938 39.4716C29.8192 39.4716 29.7004 39.3289 29.7004 39.1387C29.7004 38.8296 28.4649 35.9524 27.562 34.169C27.3006 33.6459 27.0868 33.0515 27.0868 32.8137C27.0868 32.5759 26.9917 32.3381 26.8967 32.2906C26.6828 32.2192 25.4236 29.6037 25.4236 29.247C25.4236 29.1281 25.2097 28.6525 24.9483 28.177C24.687 27.7014 24.4731 27.1783 24.4731 26.9881C24.4731 26.7978 24.3781 26.6314 24.2355 26.6314C24.1167 26.6314 23.9979 26.4887 23.9979 26.2985C23.9979 26.1083 23.7841 25.5614 23.5465 25.0383C23.2851 24.5389 22.9287 23.7542 22.7386 23.3025C21.8833 21.3051 20.8853 19.1175 20.6715 18.7371C20.5289 18.4993 20.4339 18.1426 20.4339 17.9524C20.4339 17.7622 20.3388 17.5957 20.1963 17.5957C20.0775 17.5957 19.9587 17.3342 19.9587 17.0013C19.9587 16.6684 19.8636 16.4068 19.7211 16.4068C19.6023 16.4068 19.4835 16.3117 19.4835 16.169C19.4835 15.955 18.5331 13.6961 18.0341 12.7926C17.9153 12.5548 17.8202 12.1981 17.8202 12.0079C17.8202 11.8177 17.7252 11.6512 17.5826 11.6512C17.4638 11.6512 17.345 11.5085 17.345 11.3421C17.345 11.1757 17.1312 10.605 16.8936 10.0819C15.9432 8.13206 15.2066 6.3487 15.2066 6.03959C15.2066 5.84937 15.1116 5.7067 14.969 5.7067C14.8502 5.7067 14.7314 5.49269 14.7314 5.23113C14.7314 4.96957 14.6364 4.75558 14.4938 4.75558C14.375 4.75558 14.2562 4.49402 14.2562 4.16113C14.2562 3.82823 14.1612 3.56667 14.0186 3.56667C13.8998 3.56667 13.781 3.35267 13.781 3.09111C13.781 2.82955 13.686 2.61555 13.5434 2.61555C13.4246 2.61555 13.3058 2.40154 13.3058 2.16376C13.3058 1.90221 13.2107 1.64065 13.0919 1.54553C12.9731 1.4742 12.8068 1.09375 12.7118 0.713303C12.593 0.213966 12.4029 -3.8147e-05 12.094 -3.8147e-05C11.6188 -3.8147e-05 11.4762 0.570633 11.8802 0.832191C12.0227 0.903526 12.1178 1.16508 12.1178 1.37909C12.1178 1.59309 12.4029 2.30643 12.7118 2.97222C13.0444 3.61423 13.3058 4.30379 13.3058 4.44646C13.3058 4.61291 13.4246 4.75558 13.5434 4.75558C13.686 4.75558 13.781 4.9458 13.781 5.18358C13.781 5.39758 14.2087 6.4676 14.7314 7.53761C15.2304 8.60762 15.7293 9.74897 15.8244 10.0819C15.8957 10.4385 16.062 10.7714 16.1808 10.8428C16.2996 10.9141 16.3946 11.1757 16.3946 11.4372C16.3946 11.675 16.5134 11.889 16.6322 11.889C16.7748 11.889 16.8698 12.103 16.8698 12.3646C16.8698 12.6261 16.9886 12.8401 17.1074 12.8401C17.25 12.8401 17.345 13.0541 17.345 13.2919C17.345 13.5535 17.4401 13.8388 17.5826 13.9101C17.7252 13.9815 17.8202 14.2668 17.8202 14.5284C17.8202 14.7661 17.939 14.9801 18.0578 14.9801C18.2004 14.9801 18.2955 15.1941 18.2955 15.4557C18.2955 15.7173 18.4143 15.9313 18.5331 15.9313C18.6756 15.9313 18.7707 16.0739 18.7707 16.2642C18.7707 16.4544 19.1033 17.3342 19.4835 18.214C19.8874 19.0938 20.3864 20.2113 20.6002 20.6631C20.7903 21.1387 21.3368 22.3038 21.7645 23.2311C22.2159 24.1823 22.5723 25.062 22.5723 25.2047C22.5723 25.3236 22.7862 25.7992 23.0475 26.2747C23.3089 26.7503 23.5227 27.2734 23.5227 27.4636C23.5227 27.6539 23.6415 27.8203 23.7603 27.8203C23.9029 27.8203 23.9979 28.0343 23.9979 28.2959C23.9979 28.5574 24.1167 28.7714 24.2355 28.7714C24.3781 28.7714 24.4731 28.9379 24.4731 29.1281C24.4731 29.3183 24.5682 29.675 24.687 29.9128C24.8058 30.1268 25.0671 30.6974 25.2572 31.1492C26.0651 33.0039 27.1105 35.3342 27.3244 35.7146C27.4669 35.9524 27.562 36.3091 27.562 36.4993C27.562 36.6895 27.6808 36.856 27.7996 36.856C27.9421 36.856 28.0372 36.9986 28.0372 37.1651C28.0372 37.3315 28.2273 37.9022 28.4886 38.4253C28.9163 39.3527 29.5816 40.8269 29.938 41.7305C30.0568 41.992 30.2707 42.5627 30.4607 42.9669C30.6271 43.3949 30.8409 43.7516 30.9359 43.7516C31.0548 43.7516 31.126 43.9656 31.126 44.2272C31.126 44.4887 31.1973 44.7027 31.3161 44.7027C31.4112 44.7027 31.6012 45.0594 31.7438 45.4636C32.3616 47.2945 32.9318 48.6261 33.0981 48.6974C33.1932 48.745 33.2645 48.9828 33.2645 49.2443C33.2645 49.4821 33.3833 49.6961 33.5021 49.6961C33.6446 49.6961 33.7397 49.8388 33.7397 50.029C33.7397 50.2192 34.0723 50.9801 34.4525 51.7173C34.8564 52.4544 35.1653 53.1915 35.1653 53.3342C35.1653 53.572 36.4721 56.4967 37.0899 57.5904C37.2087 57.8282 37.3037 58.2087 37.3037 58.4702C37.3037 58.7318 37.3988 58.9696 37.4938 59.0171C37.7076 59.1122 38.9669 61.6327 38.9669 61.9894C38.9669 62.1321 39.2996 62.8692 39.6798 63.6063C40.0837 64.3434 40.3926 65.1043 40.3926 65.2945C40.3926 65.4848 40.5114 65.6274 40.6302 65.6274C40.7727 65.6274 40.8678 65.889 40.8678 66.2219C40.8678 66.5548 40.939 66.8163 41.0578 66.8163C41.1529 66.8163 41.3667 67.173 41.5331 67.5772C41.7231 68.0052 41.937 68.5759 42.0558 68.8375C42.1508 69.099 42.626 70.1215 43.1012 71.0964C43.5764 72.0713 43.9566 73.07 43.9566 73.3078C43.9566 73.5218 44.0754 73.712 44.1942 73.712C44.3368 73.712 44.4318 73.8546 44.4318 74.0211C44.4318 74.1875 44.6932 74.9009 45.0258 75.5667C45.3585 76.2562 45.6198 76.8982 45.6198 77.0171C45.6198 77.1598 45.9525 77.8731 46.3326 78.634C46.7366 79.3712 47.0455 80.1321 47.0455 80.2985C47.0455 80.4649 47.1643 80.6076 47.2831 80.6076C47.4256 80.6076 47.5207 80.7503 47.5207 80.9405C47.5207 81.107 47.9959 82.2721 48.5899 83.5323C49.1839 84.7926 49.6591 85.9815 49.6591 86.1955C49.6591 86.3857 49.7779 86.5521 49.8967 86.5521C50.0393 86.5521 50.1343 86.7661 50.1343 87.0039C50.1343 87.2655 50.2531 87.5508 50.3719 87.6221C50.5145 87.6935 50.6095 87.9788 50.6095 88.2404C50.6095 88.4782 50.7283 88.6922 50.8471 88.6922C50.9897 88.6922 51.0847 88.8586 51.0847 89.0726C51.0847 89.2866 51.4411 90.2377 51.8926 91.1651C52.3202 92.0924 52.8192 93.21 53.0093 93.6142C53.1994 94.0422 53.4132 94.3989 53.5083 94.3989C53.6271 94.3989 53.6983 94.6129 53.6983 94.8745C53.6983 95.136 53.8171 95.35 53.9359 95.35C54.0785 95.35 54.1736 95.6116 54.1736 95.9445C54.1736 96.2536 54.4112 96.9194 54.6963 97.4187C55.1952 98.2509 55.2428 98.7027 55.3616 103.268C55.4566 107.548 55.4328 108.19 55.124 108.19C54.7676 108.19 54.1736 107.191 54.1736 106.597C54.1736 106.431 54.0785 106.288 53.9359 106.288C53.8171 106.288 53.6983 106.026 53.6983 105.693C53.6983 105.361 53.6033 105.099 53.4607 105.099C53.3419 105.099 53.2231 104.885 53.2231 104.623C53.2231 104.362 53.1281 104.148 53.0331 104.148C52.938 104.148 52.5341 103.339 52.1539 102.341C51.7738 101.366 51.3936 100.51 51.2748 100.439C51.1798 100.367 51.0847 100.106 51.0847 99.8441C51.0847 99.6063 50.9897 99.3923 50.8471 99.3923C50.7283 99.3923 50.6095 99.1783 50.6095 98.9405C50.6095 98.6789 50.3957 98.0845 50.1581 97.5614C49.8967 97.062 49.5165 96.2298 49.3027 95.7067C49.0888 95.1836 48.7087 94.3513 48.4473 93.852C48.2097 93.3289 47.9959 92.782 47.9959 92.5918C47.9959 92.4015 47.9008 92.2589 47.7583 92.2589C47.6395 92.2589 47.5207 92.0449 47.5207 91.8071C47.5207 91.5455 47.4256 91.2602 47.2831 91.1889C47.1643 91.1175 47.0455 90.8322 47.0455 90.5706C47.0455 90.3328 46.9504 90.1188 46.8078 90.1188C46.689 90.1188 46.5702 89.9762 46.5702 89.786C46.5702 89.5957 46.095 88.4068 45.501 87.1228C44.907 85.8626 44.4318 84.6737 44.4318 84.5072C44.4318 84.317 44.3368 84.1743 44.1942 84.1743C44.0754 84.1743 43.9566 83.9128 43.9566 83.5799C43.9566 83.247 43.8616 82.9854 43.719 82.9854C43.6002 82.9854 43.4814 82.7714 43.4814 82.5099C43.4814 82.2483 43.3864 82.0343 43.2438 82.0343C43.125 82.0343 43.0062 81.8679 43.0062 81.6776C43.0062 81.4874 42.9112 81.1307 42.7686 80.893C42.6498 80.679 42.2696 79.8467 41.937 79.062C40.844 76.5178 40.749 76.3276 40.5826 76.3276C40.4638 76.3276 40.3926 76.1373 40.3926 75.8996C40.3926 75.6856 40.0124 74.7107 39.561 73.7833C39.1095 72.8322 38.7293 71.9524 38.7293 71.8097C38.7293 71.6671 38.6343 71.3817 38.5155 71.1439C38.3967 70.9299 38.1353 70.383 37.969 69.955C37.8027 69.5508 37.5888 69.1941 37.4938 69.1941C37.375 69.1941 37.3037 69.0277 37.3037 68.8375C37.3037 68.6472 37.2087 68.2906 37.0899 68.0528C36.686 67.2919 35.3554 64.3196 34.9752 63.3685C34.7851 62.8454 34.5238 62.3223 34.405 62.2034C34.3099 62.0607 34.2149 61.7754 34.2149 61.5376C34.2149 61.2998 34.1198 61.1096 33.9773 61.1096C33.8585 61.1096 33.7397 60.8956 33.7397 60.634C33.7397 60.3725 33.6446 60.1585 33.5021 60.1585C33.3833 60.1585 33.2645 59.8969 33.2645 59.564C33.2645 59.2311 33.1694 58.9696 33.0269 58.9696C32.9081 58.9696 32.7893 58.8269 32.7893 58.6605C32.7893 58.4702 32.5279 57.8045 32.1952 57.1624C31.8626 56.5204 31.6012 55.8546 31.6012 55.6882C31.6012 55.5455 31.5062 55.4029 31.3636 55.4029C31.2448 55.4029 31.126 55.1413 31.126 54.8084C31.126 54.4755 31.031 54.214 30.8884 54.214C30.7696 54.214 30.6508 54 30.6508 53.7384C30.6508 53.4768 30.5558 53.2628 30.4132 53.2628C30.2944 53.2628 30.1756 53.0488 30.1756 52.7873C30.1756 52.5257 30.1043 52.3117 29.9855 52.3117C29.8905 52.3117 29.6767 51.8837 29.5341 51.3606C29.3678 50.8613 28.845 49.6486 28.3936 48.7212C27.9421 47.7701 27.562 46.7952 27.562 46.5574C27.562 46.3196 27.4669 46.1294 27.3244 46.1294C27.2056 46.1294 27.0868 45.9154 27.0868 45.6539C27.0868 45.3923 26.9917 45.1783 26.8967 45.1783C26.7779 45.1783 26.4928 44.5838 26.2552 43.8705C25.9938 43.1572 25.7324 42.5627 25.6612 42.5627C25.5899 42.5627 25.376 42.0871 25.2097 41.4927C25.0434 40.8982 24.8058 40.4227 24.687 40.4227C24.5682 40.4227 24.4731 40.2087 24.4731 39.9709C24.4731 39.7093 24.3781 39.424 24.2355 39.3527C24.1167 39.2813 23.9979 38.996 23.9979 38.7344C23.9979 38.4967 23.9029 38.2827 23.7603 38.2827C23.6415 38.2827 23.5227 38.14 23.5227 37.9735C23.5227 37.7833 23.2138 36.9986 22.8099 36.1902C22.4298 35.3817 22.0971 34.6446 22.0971 34.5971C22.0971 34.5257 21.8357 33.9313 21.5031 33.2417C21.1705 32.5759 20.9091 31.8626 20.9091 31.6961C20.9091 31.5297 20.814 31.387 20.6715 31.387C20.5527 31.387 20.4339 31.1255 20.4339 30.7926C20.4339 30.4597 20.3388 30.1981 20.1963 30.1981C20.0775 30.1981 19.9587 30.0554 19.9587 29.889C19.9587 29.7225 19.6973 29.0092 19.3647 28.3434C19.032 27.6539 18.7707 27.0118 18.7707 26.8692C18.7707 26.7503 18.6756 26.6314 18.5331 26.6314C18.4143 26.6314 18.2955 26.4174 18.2955 26.1796C18.2955 25.9181 18.2004 25.6327 18.0578 25.5614C17.939 25.4901 17.8202 25.2047 17.8202 24.9432C17.8202 24.7054 17.7252 24.4914 17.5826 24.4914C17.4638 24.4914 17.345 24.3249 17.345 24.1347C17.345 23.9445 17.25 23.5878 17.1074 23.35C16.8936 22.9696 15.8481 20.6393 15.0403 18.7846C14.8502 18.3329 14.5888 17.7622 14.47 17.5482C14.3512 17.3104 14.2562 16.9537 14.2562 16.7635C14.2562 16.5733 14.1612 16.4068 14.0186 16.4068C13.8998 16.4068 13.781 16.1928 13.781 15.955C13.781 15.6935 13.686 15.4081 13.5434 15.3368C13.4246 15.2655 13.3058 14.9801 13.3058 14.7186C13.3058 14.4808 13.2107 14.2668 13.0682 14.2668C12.9494 14.2668 12.8306 14.1241 12.8306 13.9339C12.8306 13.7675 12.3554 12.5548 11.7376 11.2708C11.1436 9.96297 10.5496 8.65517 10.407 8.32229C10.2645 7.9894 10.0744 7.53761 9.95558 7.32361C9.83678 7.08582 9.74174 6.72916 9.74174 6.53893C9.74174 6.3487 9.64669 6.18226 9.50413 6.18226C9.38533 6.18226 9.26653 6.01582 9.26653 5.82558C9.26653 5.39758 8.5062 3.70934 8.26859 3.61423C8.14979 3.56667 8.07851 3.32889 8.07851 3.06733C8.07851 2.82955 7.98347 2.61555 7.84091 2.61555C7.72211 2.61555 7.60331 2.35399 7.60331 2.0211C7.60331 1.6882 7.50826 1.42664 7.38946 1.42664C7.27066 1.42664 7.1281 1.18887 7.08058 0.927307C7.0093 0.380409 6.29649 -0.214043 6.03512 0.0475159C5.96384 0.142632 6.05888 0.54686 6.27273 0.974861C6.48657 1.40287 6.65289 1.92599 6.65289 2.18755C6.65289 2.42532 6.77169 2.61555 6.8905 2.61555C7.03306 2.61555 7.1281 2.82955 7.1281 3.06733C7.1281 3.32889 7.2469 3.61423 7.3657 3.68556C7.50826 3.7569 7.60331 4.04223 7.60331 4.30379C7.60331 4.54157 7.72211 4.75558 7.84091 4.75558C7.98347 4.75558 8.07851 4.96957 8.07851 5.23113C8.07851 5.49269 8.19731 5.7067 8.31612 5.7067C8.45868 5.7067 8.55372 5.87315 8.55372 6.03959C8.55372 6.22981 8.93388 7.20471 9.38533 8.22717C9.83678 9.22585 10.2169 10.2008 10.2169 10.3672C10.2169 10.5574 10.3357 10.7001 10.4545 10.7001C10.5971 10.7001 10.6921 10.9141 10.6921 11.1757C10.6921 11.4372 10.811 11.6512 10.9298 11.6512C11.0723 11.6512 11.1674 11.7939 11.1674 11.9603C11.1674 12.103 11.5475 13.0303 11.999 13.9577C12.4504 14.9088 12.8306 15.7886 12.8306 15.9075C12.8306 16.0502 13.0444 16.5257 13.3058 17.0013C13.5671 17.4768 13.781 18 13.781 18.1902C13.781 18.3804 13.8998 18.5469 14.0186 18.5469C14.1612 18.5469 14.2562 18.7609 14.2562 19.0224C14.2562 19.284 14.3275 19.498 14.4463 19.498C14.5413 19.498 14.7552 19.926 14.8977 20.4491C15.1829 21.3051 16.157 23.5878 16.656 24.5389C16.7748 24.7767 16.8698 25.1334 16.8698 25.3236C16.8698 25.5138 16.9886 25.6803 17.1074 25.6803C17.25 25.6803 17.345 25.8943 17.345 26.1558C17.345 26.4174 17.4638 26.6314 17.5826 26.6314C17.7252 26.6314 17.8202 26.8454 17.8202 27.107C17.8202 27.3685 17.939 27.5825 18.0578 27.5825C18.2004 27.5825 18.2955 27.7252 18.2955 27.8916C18.2955 28.177 19.1746 30.2457 19.7211 31.1968C19.8636 31.4346 19.9587 31.7912 19.9587 31.9815C19.9587 32.1717 20.0775 32.3381 20.1963 32.3381C20.3388 32.3381 20.4339 32.5046 20.4339 32.6948C20.4339 32.885 20.5289 33.2417 20.6477 33.4795C21.3605 34.8348 22.5723 37.6406 22.5723 37.926C22.5723 38.1162 22.6911 38.3302 22.8099 38.4015C22.9525 38.4729 23.0475 38.7582 23.0475 39.0198C23.0475 39.2576 23.1663 39.4716 23.2851 39.4716C23.4277 39.4716 23.5227 39.6856 23.5227 39.9471C23.5227 40.2087 23.6415 40.4227 23.7603 40.4227C23.9029 40.4227 23.9979 40.6842 23.9979 41.0171C23.9979 41.35 24.1167 41.6116 24.2355 41.6116C24.3781 41.6116 24.4731 41.8256 24.4731 42.0871C24.4731 42.3487 24.5919 42.5627 24.7107 42.5627C24.8533 42.5627 24.9483 42.7529 24.9483 42.9907C24.9483 43.2285 25.0434 43.5138 25.1384 43.6565C25.2572 43.7754 25.6374 44.6076 26.0176 45.535C26.374 46.4385 26.7779 47.2945 26.8967 47.4134C26.9917 47.5561 27.0868 47.8414 27.0868 48.0792C27.0868 48.317 27.1818 48.5072 27.2769 48.5072C27.3957 48.5072 27.6333 48.959 27.8233 49.5059C27.9897 50.0766 28.3936 50.9564 28.6787 51.4795C28.9876 52.0026 29.2252 52.6208 29.2252 52.8348C29.2252 53.0726 29.344 53.2628 29.4628 53.2628C29.6054 53.2628 29.7004 53.5244 29.7004 53.8573C29.7004 54.1902 29.8192 54.4517 29.938 54.4517C30.0806 54.4517 30.1756 54.6657 30.1756 54.9273C30.1756 55.1889 30.2944 55.4029 30.4132 55.4029C30.5558 55.4029 30.6508 55.6169 30.6508 55.8546C30.6508 56.1162 30.7696 56.4015 30.8884 56.4729C31.031 56.5442 31.126 56.8295 31.126 57.0911C31.126 57.3289 31.2448 57.5429 31.3636 57.5429C31.5062 57.5429 31.6012 57.6856 31.6012 57.8758C31.6012 58.0422 31.9814 58.9934 32.4328 59.992C32.8843 60.9907 33.2645 61.9656 33.2645 62.1558C33.2645 62.3698 33.3833 62.5363 33.5021 62.5363C33.6446 62.5363 33.7397 62.7503 33.7397 63.0118C33.7397 63.2734 33.8585 63.4874 33.9773 63.4874C34.1198 63.4874 34.2149 63.6301 34.2149 63.7727C34.2149 64.0819 34.4525 64.605 35.7355 67.2919C36.0682 68.0052 36.3533 68.7424 36.3533 68.9088C36.3533 69.0515 36.4721 69.1941 36.5909 69.1941C36.7335 69.1941 36.8285 69.4557 36.8285 69.7886C36.8285 70.1215 36.9473 70.383 37.0661 70.383C37.2087 70.383 37.3037 70.5257 37.3037 70.6922C37.3037 70.8824 37.4463 71.3342 37.6364 71.7146C37.8264 72.0951 38.2066 72.9273 38.468 73.5931C38.7531 74.2351 39.0857 74.9722 39.2045 75.1862C39.3471 75.424 39.4421 75.7807 39.4421 75.9709C39.4421 76.1611 39.561 76.3276 39.6798 76.3276C39.8223 76.3276 39.9174 76.5416 39.9174 76.7793C39.9174 77.0409 40.0362 77.3262 40.155 77.3976C40.2975 77.4689 40.3926 77.7542 40.3926 78.0158C40.3926 78.2536 40.5114 78.4676 40.6302 78.4676C40.7727 78.4676 40.8678 78.6103 40.8678 78.8005C40.8678 78.9907 41.0816 79.5376 41.3192 80.0607C41.5806 80.5601 42.0795 81.6539 42.4597 82.5099C42.8161 83.3659 43.1963 84.0792 43.2913 84.1268C43.3864 84.1743 43.4814 84.4121 43.4814 84.6737C43.4814 84.9114 43.6002 85.1255 43.719 85.1255C43.8616 85.1255 43.9566 85.3395 43.9566 85.601C43.9566 85.8626 44.0517 86.2668 44.1705 86.5046C44.2893 86.7186 44.6932 87.5508 45.0496 88.3355C45.406 89.1202 45.7862 89.9524 45.905 90.1664C46 90.4042 46.095 90.7609 46.095 90.9511C46.095 91.1413 46.2138 91.3077 46.3326 91.3077C46.4752 91.3077 46.5702 91.5218 46.5702 91.7833C46.5702 92.0449 46.689 92.2589 46.8078 92.2589C46.9504 92.2589 47.0455 92.5204 47.0455 92.8533C47.0455 93.1862 47.1643 93.4478 47.2831 93.4478C47.4256 93.4478 47.5207 93.5904 47.5207 93.7569C47.5207 93.9471 47.8771 94.8269 48.3048 95.7305C48.7324 96.634 49.2314 97.7516 49.4215 98.2034C49.5878 98.6552 49.8254 99.1307 49.9442 99.2734C50.0393 99.3923 50.1343 99.6776 50.1343 99.9154C50.1343 100.153 50.2531 100.343 50.3719 100.343C50.5145 100.343 50.6095 100.557 50.6095 100.795C50.6095 101.057 50.7283 101.342 50.8471 101.413C50.9897 101.485 51.0847 101.723 51.0847 101.913C51.0847 102.341 52.3202 104.956 52.5816 105.051C52.6767 105.099 52.7479 105.337 52.7479 105.575C52.7479 105.812 52.8667 106.098 52.9855 106.169C53.1281 106.24 53.2231 106.526 53.2231 106.787C53.2231 107.025 53.3419 107.239 53.4607 107.239C53.6033 107.239 53.6983 107.453 53.6983 107.715C53.6983 107.976 53.8171 108.19 53.9359 108.19C54.0785 108.19 54.1736 108.499 54.1736 108.904C54.1736 109.284 54.2448 109.617 54.3636 109.617C54.4587 109.617 54.72 110.045 54.9576 110.568C55.5279 111.9 55.5754 121.03 55.0052 121.03C54.8151 121.03 54.6488 120.816 54.6488 120.579C54.6488 120.317 54.5537 120.032 54.4112 119.96C54.2924 119.889 54.1736 119.604 54.1736 119.342C54.1736 119.104 54.0785 118.89 53.9359 118.89C53.8171 118.89 53.6983 118.748 53.6983 118.557C53.6983 118.367 53.3182 117.511 52.8667 116.655C52.4153 115.775 52.0351 114.967 52.0351 114.848C52.0351 114.729 51.7262 113.921 51.3223 113.065C50.9421 112.209 50.6095 111.353 50.6095 111.162C50.6095 110.972 50.5145 110.806 50.3719 110.806C50.2531 110.806 50.1343 110.592 50.1343 110.354C50.1343 110.092 50.0393 109.807 49.8967 109.736C49.7779 109.664 49.6591 109.379 49.6591 109.118C49.6591 108.88 49.564 108.666 49.4215 108.666C49.3027 108.666 49.1839 108.523 49.1839 108.333C49.1839 108.143 48.8037 107.168 48.3523 106.193C47.9008 105.194 47.5207 104.267 47.5207 104.148C47.5207 104.005 47.4256 103.91 47.2831 103.91C47.1643 103.91 47.0455 103.744 47.0455 103.553C47.0455 103.363 46.9504 103.007 46.8316 102.769C46.1188 101.437 44.907 98.6314 44.907 98.3223C44.907 98.1321 44.812 97.9656 44.6694 97.9656C44.5506 97.9656 44.4318 97.7516 44.4318 97.5138C44.4318 97.2523 44.3368 96.9669 44.1942 96.8956C44.0754 96.8243 43.9566 96.5389 43.9566 96.2774C43.9566 96.0396 43.8616 95.8256 43.719 95.8256C43.6002 95.8256 43.4814 95.6591 43.4814 95.4689C43.4814 95.136 42.9587 93.8996 41.5568 90.9273C41.1767 90.1188 40.8678 89.2866 40.8678 89.0726C40.8678 88.8586 40.7727 88.6922 40.6302 88.6922C40.5114 88.6922 40.3926 88.4782 40.3926 88.2166C40.3926 87.955 40.2975 87.741 40.155 87.741C40.0362 87.741 39.9174 87.527 39.9174 87.2893C39.9174 87.0277 39.8223 86.7424 39.6798 86.671C39.561 86.5997 39.4421 86.3144 39.4421 86.0528C39.4421 85.815 39.3471 85.601 39.2521 85.601C39.157 85.601 38.8719 85.0066 38.6105 84.2932C38.3729 83.5799 38.0878 82.9854 37.969 82.9854C37.874 82.9854 37.7789 82.7714 37.7789 82.5099C37.7789 82.2483 37.6839 82.0343 37.5413 82.0343C37.4225 82.0343 37.3037 81.8203 37.3037 81.5825C37.3037 81.321 37.2087 81.0356 37.0661 80.9643C36.9473 80.893 36.8285 80.6076 36.8285 80.3461C36.8285 80.1083 36.7335 79.8943 36.5909 79.8943C36.4721 79.8943 36.3533 79.7516 36.3533 79.5614C36.3533 79.3949 35.9731 78.42 35.5217 77.4214C35.0702 76.3989 34.6901 75.424 34.6901 75.2338C34.6901 75.0673 34.595 74.9009 34.4525 74.9009C34.3337 74.9009 34.2149 74.6869 34.2149 74.4253C34.2149 74.1638 34.1198 73.9498 33.9773 73.9498C33.8585 73.9498 33.7397 73.6882 33.7397 73.3553C33.7397 73.0224 33.6446 72.7609 33.5021 72.7609C33.3833 72.7609 33.2645 72.5469 33.2645 72.2853C33.2645 72.0237 33.1694 71.8097 33.0269 71.8097C32.9081 71.8097 32.7893 71.6433 32.7893 71.4531C32.7893 71.0251 32.0289 69.3368 31.7913 69.2417C31.6725 69.1941 31.6012 68.9564 31.6012 68.7186C31.6012 68.4808 31.5062 68.1955 31.3636 68.1241C31.2448 68.0528 31.126 67.7675 31.126 67.5059C31.126 67.2681 31.031 67.0541 30.8884 67.0541C30.7696 67.0541 30.6508 66.9114 30.6508 66.7212C30.6508 66.531 30.437 65.9841 30.1994 65.461C29.938 64.9616 29.5816 64.177 29.3915 63.7252C28.5599 61.7992 27.9897 60.4914 27.7758 60.1109C27.657 59.8731 27.562 59.5165 27.562 59.3262C27.562 59.136 27.4669 58.9696 27.3244 58.9696C27.2056 58.9696 27.0868 58.7556 27.0868 58.494C27.0868 58.2325 26.9917 58.0184 26.8492 58.0184C26.7304 58.0184 26.6116 57.852 26.6116 57.6618C26.6116 57.4716 26.5165 57.1149 26.4215 56.8771C26.3027 56.6631 25.9225 55.8784 25.5899 55.1651C25.2335 54.4517 24.9483 53.7146 24.9483 53.5482C24.9483 53.4055 24.8533 53.2628 24.7107 53.2628C24.5919 53.2628 24.4731 53.0964 24.4731 52.9062C24.4731 52.7159 24.093 51.7173 23.6178 50.7186C23.1663 49.7199 22.5486 48.3408 22.2872 47.6988C22.0021 47.033 21.6932 46.391 21.5744 46.2721C21.4793 46.1294 21.3843 45.8441 21.3843 45.6063C21.3843 45.3685 21.2893 45.1783 21.1467 45.1783C21.0279 45.1783 20.9091 45.0118 20.9091 44.8216C20.9091 44.6314 20.814 44.2747 20.6952 44.0369C20.5764 43.8229 20.3151 43.2285 20.1012 42.7529C19.8874 42.2774 19.2934 40.9458 18.7707 39.8282C18.2479 38.6869 17.8202 37.6169 17.8202 37.4266C17.8202 37.2364 17.7252 37.0938 17.5826 37.0938C17.4638 37.0938 17.345 36.8322 17.345 36.4993C17.345 36.1664 17.2738 35.9048 17.155 35.9048C17.0599 35.9048 16.8461 35.5482 16.6798 35.1202C16.4897 34.7159 16.2758 34.1453 16.157 33.8837C16.062 33.6222 15.6818 32.8137 15.3492 32.0766C15.0165 31.3395 14.7314 30.6261 14.7314 30.4834C14.7314 30.317 14.6364 30.1981 14.4938 30.1981C14.375 30.1981 14.2562 29.9366 14.2562 29.6274C14.2562 29.2945 14.1612 28.9616 14.0186 28.8903C13.8998 28.819 13.781 28.5336 13.781 28.2959C13.781 28.0581 13.686 27.8203 13.5909 27.7727C13.4959 27.7252 13.1157 27.0118 12.7593 26.1558C12.3791 25.2998 11.999 24.42 11.8564 24.206C11.7376 23.9683 11.6426 23.6116 11.6426 23.4214C11.6426 23.2311 11.5475 23.0647 11.405 23.0647C11.2862 23.0647 11.1674 22.8507 11.1674 22.5891C11.1674 22.3276 11.0723 22.1136 10.9298 22.1136C10.811 22.1136 10.6921 21.8996 10.6921 21.638C10.6921 21.3764 10.5971 21.1624 10.4545 21.1624C10.3357 21.1624 10.2169 20.9009 10.2169 20.568C10.2169 20.2351 10.1219 19.9735 9.97934 19.9735C9.86054 19.9735 9.74174 19.7595 9.74174 19.498C9.74174 19.2364 9.64669 19.0224 9.50413 19.0224C9.38533 19.0224 9.26653 18.8322 9.26653 18.5944C9.26653 18.3804 9.10021 17.8811 8.91012 17.5006C8.72004 17.144 8.55372 16.6208 8.55372 16.383C8.55372 16.1215 8.45868 15.9313 8.31612 15.9313C8.19731 15.9313 8.07851 15.7648 8.07851 15.5746C8.07851 15.3844 7.98347 15.2179 7.84091 15.2179C7.72211 15.2179 7.60331 15.0753 7.60331 14.9088C7.60331 14.7424 7.38946 14.1479 7.1281 13.601C6.86674 13.0779 6.65289 12.4597 6.65289 12.2457C6.65289 12.0554 6.58161 11.889 6.48657 11.889C6.36777 11.889 6.1064 11.3897 5.8688 10.7477C5.6312 10.1294 5.22727 9.22585 4.96591 8.72651C4.72831 8.20339 4.51446 7.6565 4.51446 7.46627C4.51446 7.27605 4.41942 7.13338 4.27686 7.13338C4.15806 7.13338 4.03926 6.91938 4.03926 6.65782C4.03926 6.39626 3.94421 6.18226 3.80165 6.18226C3.68285 6.18226 3.56405 5.99203 3.56405 5.75425C3.56405 5.3738 2.37603 2.63933 1.66322 1.37909C1.52066 1.1413 1.42562 0.737083 1.42562 0.475525C1.42562 0.0950699 1.2593 -3.8147e-05 0.71281 -3.8147e-05H0V62.2985Z" fill="black"/>
<path d="M89.6953 23.8256C89.7428 36.9511 89.8379 49.1968 89.9329 51.0515L90.123 54.4042L90.9071 54.4993C91.3348 54.5469 99.4846 54.5469 109.036 54.4993C123.578 54.4042 126.405 54.3329 126.405 54.0713C126.405 53.786 124.766 53.7384 116.568 53.7384C111.151 53.7384 106.565 53.6671 106.351 53.5957C106.019 53.4531 105.971 51.7173 105.971 36.2853C105.995 19.3553 106.114 16.0739 106.731 15.6459C106.898 15.527 107.682 15.4557 108.466 15.4795C109.25 15.5033 121.796 15.5033 136.337 15.4795L162.758 15.4557V7.72784V-3.43323e-05H126.191H89.624L89.6953 23.8256Z" fill="black"/>
<path d="M180.65 27.107C180.697 42.0396 180.84 54.3091 180.935 54.4042C181.101 54.5707 216.172 54.6658 217.122 54.4993C217.407 54.4518 217.645 54.2378 217.645 54.0713C217.645 53.786 215.981 53.7384 207.57 53.7384C201.511 53.7384 197.425 53.6433 197.33 53.5244C197.258 53.3818 197.211 44.9168 197.211 34.6922C197.211 17.3104 197.235 16.074 197.638 15.7886C197.971 15.5509 203.507 15.4795 225.842 15.4557C247.535 15.4557 253.665 15.3844 253.808 15.1466C253.903 15.004 253.998 11.5086 253.998 7.41875V-3.8147e-06H217.264H180.531L180.65 27.107Z" fill="black"/>
<path d="M271.438 30.8402C271.509 47.8177 271.652 72.3805 271.723 85.4109L271.866 109.141L282.938 109.118C289.044 109.118 294.509 109.023 295.103 108.927C296.006 108.761 295.816 108.713 293.868 108.69C292.608 108.69 291.492 108.547 291.42 108.428C291.349 108.285 290.636 108.19 289.852 108.19C288.45 108.19 287.405 107.715 287.975 107.358C288.141 107.263 288.213 91.9736 288.213 61.609C288.213 22.7319 288.26 15.9551 288.545 15.7173C288.783 15.5033 291.397 15.4558 298.596 15.5509C309.027 15.6698 312.448 15.8362 312.448 16.1929C312.448 16.3118 312.686 16.4069 312.995 16.4069C314.04 16.4069 318.578 18.3092 318.816 18.8323C318.864 18.9512 319.054 19.0225 319.244 19.0225C319.434 19.0225 319.576 19.1176 319.576 19.2603C319.576 19.3792 319.743 19.4981 319.933 19.4981C320.123 19.4981 320.289 19.5932 320.289 19.7358C320.289 19.8547 320.408 19.9736 320.551 19.9736C320.836 19.9736 324.091 23.1361 324.091 23.3977C324.091 23.4928 324.281 23.7781 324.519 24.0159C325.089 24.6341 326.704 27.5588 326.704 27.9631C326.704 28.1533 326.823 28.296 326.942 28.296C327.085 28.296 327.18 28.5575 327.18 28.8666C327.18 29.1995 327.299 29.5324 327.417 29.6037C327.56 29.6751 327.655 30.1269 327.655 30.5786C327.655 31.0304 327.75 31.3871 327.869 31.3871C327.964 31.3871 328.154 32.3858 328.273 33.5747C328.534 36.1903 328.51 89.6672 328.249 91.4743C328.154 92.1638 327.988 92.7345 327.869 92.7345C327.75 92.7345 327.655 93.0912 327.655 93.543C327.655 93.9948 327.56 94.4465 327.417 94.5179C327.299 94.5892 327.18 94.9221 327.18 95.2312C327.18 95.5403 327.108 95.8257 327.013 95.8732C326.895 95.897 326.514 96.6103 326.134 97.4188C325.754 98.251 325.35 98.9168 325.231 98.9168C325.136 98.9168 325.041 99.0595 325.041 99.2022C325.018 99.7728 322.784 102.27 321.216 103.482C320.812 103.768 320.337 104.172 320.17 104.314C319.98 104.481 319.743 104.624 319.6 104.624C319.458 104.624 319.339 104.719 319.339 104.861C319.339 104.98 319.196 105.099 319.03 105.099C318.864 105.099 318.507 105.289 318.246 105.527C318.008 105.765 317.177 106.264 316.416 106.621C314.848 107.406 314.539 107.715 315.371 107.715C315.941 107.715 318.531 106.454 319.862 105.527C320.194 105.289 320.598 105.099 320.741 105.099C320.883 105.099 321.002 105.004 321.002 104.909C321.002 104.814 321.287 104.552 321.667 104.338C322.594 103.768 324.566 101.794 324.566 101.414C324.566 101.247 324.661 101.057 324.756 101.009C325.041 100.914 326.586 98.6077 326.966 97.7279C327.156 97.3475 327.37 97.0146 327.465 97.0146C327.584 97.0146 327.655 96.753 327.655 96.4201C327.655 96.0872 327.75 95.8257 327.845 95.8257C328.011 95.8257 328.249 95.0886 328.843 92.7345C328.962 92.2827 329.128 91.3078 329.199 90.5707C329.294 89.8336 329.437 89.0965 329.556 88.93C329.698 88.6922 331.813 88.5496 333.547 88.6685C333.88 88.6922 333.928 89.786 333.595 90C333.476 90.0714 333.357 90.5945 333.357 91.1176C333.357 91.6407 333.239 92.5205 333.096 93.0674C332.288 96.1823 332.003 97.0146 331.409 98.2035C331.053 98.9168 330.744 99.6302 330.744 99.7966C330.744 99.9631 330.649 100.106 330.506 100.106C330.387 100.106 330.269 100.272 330.269 100.462C330.269 100.653 330.174 100.819 330.031 100.819C329.912 100.819 329.793 100.962 329.793 101.128C329.793 102.198 323.877 108.666 322.903 108.666C322.76 108.666 322.665 108.761 322.665 108.904C322.665 109.023 322.523 109.141 322.333 109.141C322.143 109.141 321.952 109.237 321.905 109.332C321.81 109.617 318.65 111.281 318.246 111.281C318.056 111.281 317.913 111.377 317.913 111.519C317.913 111.638 317.652 111.757 317.343 111.757C317.01 111.757 316.678 111.852 316.606 111.995C316.535 112.114 316.274 112.233 316.036 112.233C315.822 112.233 315.395 112.447 315.109 112.708C314.729 113.089 314.278 113.184 313.114 113.184C311.759 113.207 311.664 113.231 312.163 113.517C312.638 113.754 312.947 113.754 313.945 113.493C314.61 113.326 315.395 113.184 315.703 113.184C315.989 113.184 316.297 113.065 316.369 112.946C316.44 112.827 316.725 112.708 316.987 112.708C317.224 112.708 317.438 112.589 317.438 112.47C317.438 112.328 317.652 112.233 317.889 112.233C318.151 112.233 318.436 112.114 318.507 111.995C318.578 111.852 318.911 111.757 319.244 111.757C319.553 111.757 319.814 111.638 319.814 111.519C319.814 111.377 320.028 111.281 320.289 111.281C320.574 111.281 320.978 111.091 321.24 110.853C321.477 110.639 322.095 110.235 322.594 109.974C323.093 109.712 323.663 109.308 323.877 109.094C324.091 108.856 324.376 108.666 324.542 108.666C324.685 108.666 324.804 108.547 324.804 108.428C324.804 108.285 324.922 108.19 325.089 108.19C325.35 108.19 328.273 105.218 329.247 103.958C329.532 103.577 329.912 102.983 330.055 102.626C330.221 102.293 330.435 102.008 330.554 102.008C330.649 102.008 330.744 101.794 330.744 101.532C330.744 101.271 330.863 101.057 330.981 101.057C331.124 101.057 331.219 100.89 331.219 100.7C331.219 100.51 331.29 100.344 331.409 100.344C331.575 100.344 332.169 99.2259 332.169 98.8693C332.169 98.7742 332.431 98.1321 332.716 97.4426C333.547 95.6117 333.833 94.5892 333.833 93.6143C333.833 93.1388 333.951 92.7345 334.07 92.7345C334.213 92.7345 334.308 92.0925 334.308 91.2841C334.308 89.9049 334.593 88.9776 335.092 88.6447C335.234 88.5496 335.852 88.5496 336.446 88.6209C337.088 88.6922 337.777 88.6447 338.062 88.4782C338.513 88.2405 338.585 88.288 338.727 88.8111C338.799 89.144 338.799 89.8098 338.727 90.3092C338.656 90.7847 338.513 91.9023 338.442 92.8059C338.347 93.6856 338.181 94.4703 338.086 94.5417C337.967 94.613 337.872 95.041 337.872 95.4928C337.872 95.9446 337.777 96.3012 337.634 96.3012C337.515 96.3012 337.397 96.6103 337.397 97.0146C337.397 97.395 337.302 97.7279 337.159 97.7279C337.04 97.7279 336.921 97.9419 336.921 98.2035C336.921 98.465 336.826 98.8693 336.708 99.107C336.589 99.321 336.09 100.367 335.591 101.414C335.116 102.46 334.64 103.363 334.569 103.435C334.498 103.506 334.26 103.863 334.07 104.267C333.88 104.647 333.666 105.028 333.595 105.099C333.524 105.17 333.167 105.622 332.811 106.122C332.027 107.144 329.96 109.427 329.104 110.188C328.795 110.449 328.178 111.044 327.75 111.448C326.871 112.304 323.806 114.373 323.402 114.373C323.259 114.373 323.14 114.468 323.14 114.61C323.14 114.729 322.974 114.848 322.784 114.848C322.594 114.848 322.428 114.943 322.428 115.086C322.428 115.205 322.214 115.324 321.952 115.324C321.691 115.324 321.477 115.419 321.477 115.561C321.477 115.68 321.335 115.799 321.168 115.799C321.002 115.799 320.289 116.061 319.624 116.394C318.935 116.727 317.889 117.131 317.248 117.273C316.63 117.44 315.775 117.749 315.347 117.987C314.848 118.272 314.064 118.415 313.161 118.415C312.377 118.415 311.735 118.51 311.735 118.605C311.735 118.819 313.755 118.772 315.608 118.534C316.226 118.439 316.725 118.272 316.725 118.153C316.725 118.034 316.987 117.939 317.295 117.939C317.628 117.939 317.961 117.82 318.032 117.701C318.103 117.559 318.436 117.464 318.745 117.464C319.054 117.464 319.386 117.345 319.458 117.226C319.529 117.107 319.766 116.988 319.957 116.988C320.408 116.988 323.948 115.324 324.043 115.062C324.091 114.943 324.328 114.848 324.566 114.848C324.804 114.848 325.041 114.753 325.089 114.658C325.136 114.539 325.802 114.04 326.586 113.517C327.37 113.017 328.344 112.28 328.748 111.876C329.152 111.495 329.698 110.996 329.936 110.782C330.197 110.568 331.029 109.665 331.813 108.785C332.597 107.905 333.381 107.025 333.547 106.859C333.69 106.692 333.833 106.454 333.833 106.312C333.833 106.169 333.951 106.05 334.07 106.05C334.213 106.05 334.308 105.908 334.308 105.741C334.308 105.575 334.498 105.218 334.735 104.956C334.973 104.695 335.377 104.053 335.615 103.482C335.852 102.935 336.137 102.484 336.256 102.484C336.351 102.484 336.446 102.27 336.446 102.008C336.446 101.746 336.565 101.532 336.684 101.532C336.826 101.532 336.921 101.271 336.921 100.938C336.921 100.605 337.04 100.344 337.159 100.344C337.302 100.344 337.397 100.13 337.397 99.8679C337.397 99.6064 337.515 99.3924 337.634 99.3924C337.777 99.3924 337.872 99.0833 337.872 98.7028C337.872 98.2986 337.967 97.9419 338.086 97.8706C338.204 97.7993 338.347 97.4426 338.418 97.0859C338.49 96.7055 338.703 95.7781 338.917 94.9934C339.131 94.2088 339.369 92.5919 339.44 91.3792C339.535 90.1903 339.678 89.0727 339.773 88.93C339.915 88.6922 342.054 88.5496 343.764 88.6685C344.026 88.6922 344.05 88.9776 343.954 89.9287C343.859 90.6183 343.741 91.8785 343.669 92.7345C343.598 93.5905 343.432 94.3752 343.313 94.5179C343.194 94.6368 343.099 94.9934 343.099 95.3026C343.099 96.2061 342.363 98.6553 341.198 101.651C340.913 102.412 339.915 104.505 339.773 104.624C339.559 104.838 338.561 106.645 338.418 107.049C338.347 107.287 338.204 107.477 338.086 107.477C337.967 107.477 337.872 107.643 337.872 107.834C337.872 108.024 337.777 108.19 337.682 108.19C337.563 108.19 337.325 108.476 337.135 108.832C336.945 109.213 336.422 109.902 335.971 110.402C335.52 110.901 335.044 111.495 334.926 111.709C334.688 112.114 332.882 113.826 331.742 114.729C331.409 114.991 330.934 115.419 330.649 115.68C330.364 115.942 329.722 116.489 329.199 116.869C328.677 117.273 328.201 117.63 328.13 117.701C328.059 117.773 327.702 117.987 327.299 118.177C326.918 118.367 326.538 118.605 326.467 118.676C326.229 118.986 320.883 121.506 320.479 121.506C320.242 121.506 320.052 121.601 320.052 121.744C320.052 121.863 319.79 121.982 319.458 121.982C319.125 121.982 318.864 122.077 318.864 122.219C318.864 122.338 318.626 122.457 318.341 122.481C318.032 122.481 316.416 122.861 314.706 123.289C311.949 124.026 311.783 124.098 313.042 124.026C315.062 123.884 317.01 123.551 317.557 123.242C317.818 123.123 318.697 122.861 319.529 122.671C320.337 122.505 321.002 122.267 321.002 122.172C321.002 122.077 321.216 121.982 321.477 121.982C321.739 121.982 322.143 121.886 322.38 121.768C322.594 121.625 323.639 121.126 324.685 120.65C325.73 120.151 326.633 119.699 326.704 119.628C326.776 119.556 327.108 119.342 327.489 119.152C327.845 118.962 328.13 118.724 328.13 118.605C328.13 118.51 328.296 118.415 328.487 118.415C328.677 118.415 329.057 118.225 329.342 118.011C329.603 117.773 330.055 117.392 330.34 117.178C332.098 115.752 332.621 115.3 333.928 113.992C336.042 111.876 337.872 109.76 337.872 109.474C337.872 109.379 338.086 109.141 338.323 108.927C338.585 108.69 338.965 108.071 339.179 107.524C339.416 106.978 339.678 106.526 339.773 106.526C339.868 106.526 340.01 106.336 340.082 106.098C340.153 105.884 340.367 105.432 340.557 105.099C341.198 104.029 342.41 101.223 342.553 100.534C342.624 100.153 342.79 99.7966 342.885 99.7253C343.004 99.6539 343.099 99.3448 343.099 99.0357C343.099 98.7266 343.218 98.3937 343.337 98.3224C343.479 98.251 343.574 97.823 343.574 97.3712C343.574 96.9195 343.693 96.4915 343.812 96.4201C343.954 96.3488 344.05 95.9208 344.05 95.469C344.05 95.0172 344.145 94.613 344.24 94.5417C344.762 94.2325 344.881 88.3594 344.857 62.2986C344.857 35.9525 344.739 29.2471 344.263 29.2471C344.145 29.2471 344.05 28.7715 344.05 28.1771C344.05 27.5826 343.954 27.107 343.812 27.107C343.693 27.107 343.574 26.8693 343.574 26.5839C343.574 26.1084 343.289 25.0146 342.862 23.897C342.743 23.6354 342.481 22.9459 342.268 22.3514C341.65 20.6156 341.341 19.9736 341.151 19.9736C341.032 19.9736 340.961 19.7596 340.961 19.4981C340.961 19.2365 340.866 19.0225 340.723 19.0225C340.604 19.0225 340.485 18.8085 340.485 18.5469C340.485 18.2854 340.39 18.0714 340.295 18.0714C340.177 18.0714 339.963 17.6909 339.773 17.2391C339.583 16.7874 339.369 16.4069 339.274 16.4069C339.179 16.4069 339.036 16.2167 338.965 15.9789C338.894 15.7649 338.513 15.1942 338.109 14.7424C337.729 14.2907 337.397 13.8151 337.397 13.72C337.397 13.6249 337.04 13.1731 336.636 12.7213C336.209 12.2695 335.496 11.5086 335.092 11.0568C334.664 10.6051 334.308 10.1533 334.308 10.0582C334.308 9.96306 333.833 9.53505 333.286 9.10705C332.74 8.70282 331.884 7.9657 331.385 7.51392C330.91 7.03835 330.411 6.65791 330.316 6.65791C330.197 6.65791 329.888 6.4439 329.603 6.18234C329.033 5.63544 327.251 4.4941 325.992 3.87587C325.54 3.63809 325.136 3.37653 325.089 3.25764C325.041 3.16253 324.804 3.09119 324.542 3.09119C324.305 3.09119 324.091 2.97231 324.091 2.85341C324.091 2.71075 323.877 2.61563 323.616 2.61563C323.354 2.61563 323.14 2.49674 323.14 2.37785C323.14 2.23518 322.95 2.14007 322.713 2.14007C322.475 2.14007 322.19 2.04496 322.047 1.94984C321.929 1.83096 321.192 1.54562 320.408 1.30784C319.624 1.09383 318.745 0.784721 318.436 0.689606C318.127 0.570717 317.628 0.475609 317.319 0.475609C317.01 0.475609 316.678 0.356712 316.606 0.237823C316.511 0.0713806 308.67 4.57764e-05 293.891 4.57764e-05H271.295L271.438 30.8402Z" fill="black"/>
<path d="M89.8616 59.4452C90.1704 59.9207 90.4318 59.9207 108.276 59.9207C126.239 59.9207 126.405 59.9207 126.405 59.4452C126.405 58.9696 126.239 58.9696 107.991 58.9696C89.624 58.9696 89.5764 58.9696 89.8616 59.4452Z" fill="black"/>
<path d="M180.864 59.3738C180.935 59.778 182.028 59.8018 198.969 59.8732C216.837 59.9207 217.645 59.8969 217.645 59.1836C217.645 59.0647 209.637 58.9696 199.207 58.9696C181.79 58.9696 180.792 58.9934 180.864 59.3738Z" fill="black"/>
<path d="M90.0516 64.3196C90.0516 64.6287 91.5961 64.6763 102.478 64.6763C109.298 64.6763 117.352 64.7001 120.346 64.7001C123.364 64.7001 125.953 64.7001 126.12 64.7001C126.262 64.6763 126.405 64.5098 126.405 64.3196C126.405 64.0105 124.219 63.963 108.228 63.963C92.2376 63.963 90.0516 64.0105 90.0516 64.3196Z" fill="black"/>
<path d="M180.935 64.2246C180.84 64.3672 180.816 64.5099 180.864 64.5575C180.935 64.6288 216.599 64.7952 217.383 64.7001C217.645 64.6764 217.645 64.605 217.407 64.3197C217.146 64.0106 214.817 63.963 199.088 63.963C186.59 63.963 181.03 64.0344 180.935 64.2246Z" fill="black"/>
<path d="M89.8853 69.5508C89.6477 69.8124 89.6002 75.8044 89.6002 96.7054C89.624 111.448 89.719 123.765 89.8378 124.05L90.0279 124.597H126.405C158.173 124.597 162.758 124.549 162.758 124.24C162.758 123.955 159.17 123.884 134.769 123.836C108.347 123.765 106.755 123.741 106.351 123.337C105.995 123.004 105.971 122.79 106.185 122.172C106.327 121.767 106.446 120.959 106.446 120.412V119.366H134.602H162.758V118.843V118.343L157.959 118.51C152.636 118.7 123.34 118.724 113.147 118.557C107.824 118.462 106.613 118.391 106.327 118.082C106.019 117.773 106.019 117.487 106.256 116.061L106.541 114.372H134.27C149.524 114.372 162.164 114.301 162.378 114.23C162.592 114.158 162.758 113.944 162.758 113.754C162.758 113.469 158.505 113.421 134.602 113.421H106.446V111.281V109.141H134.602C162.592 109.141 162.758 109.141 162.758 108.666C162.758 108.19 162.592 108.19 134.602 108.19H106.446L106.423 103.482C106.399 100.914 106.375 98.4649 106.351 98.0845C106.304 97.6803 106.209 91.4029 106.09 84.1268C105.924 72.214 105.947 70.8586 106.28 70.5257C106.613 70.1928 107.848 70.1453 116.521 70.1453C126.239 70.1453 126.405 70.1453 126.405 69.6697C126.405 69.1941 126.239 69.1941 108.3 69.1941C93.0692 69.2179 90.1229 69.2655 89.8853 69.5508Z" fill="black"/>
<path d="M180.745 69.527C180.555 70.0026 180.555 113.968 180.721 119.675L180.887 124.597L201.583 124.502C212.964 124.431 223.775 124.288 225.604 124.169C228.17 124.026 225.486 123.955 213.962 123.884C205.741 123.836 198.613 123.789 198.161 123.789L197.33 123.765L197.258 121.553L197.187 119.342L197.924 119.104C198.85 118.771 198.85 118.415 197.924 118.415H197.211V116.394V114.372H198.066C198.518 114.372 199.064 114.206 199.254 114.016C199.563 113.707 199.539 113.659 199.064 113.564C198.755 113.493 198.256 113.398 197.924 113.374C197.353 113.302 197.33 113.231 197.258 111.424C197.211 110.378 197.282 109.45 197.377 109.355C197.496 109.236 202.438 109.141 208.378 109.118C219.498 109.094 220.828 109.046 220.662 108.571C220.591 108.38 217.882 108.309 210.73 108.357C205.313 108.38 200.585 108.404 200.181 108.428C199.801 108.428 198.969 108.38 198.351 108.285L197.211 108.143L197.163 89.5719C197.116 79.3474 197.139 70.7873 197.187 70.5733C197.258 70.169 197.995 70.1453 207.404 70.0977C216.219 70.0264 217.526 69.9788 217.526 69.6697C217.526 69.3606 215.292 69.313 199.207 69.2417C183.81 69.1941 180.84 69.2417 180.745 69.527Z" fill="black"/>
<path d="M312.044 108.119C312.258 108.166 312.638 108.166 312.876 108.119C313.09 108.048 312.9 108 312.448 108C311.997 108 311.807 108.048 312.044 108.119Z" fill="black"/>
<path d="M203.151 113.635L200.894 113.778L203.151 113.968C204.386 114.063 209.091 114.04 213.605 113.944L221.803 113.73L216.219 113.707C213.154 113.683 209.471 113.612 208.022 113.564C206.596 113.516 204.386 113.54 203.151 113.635Z" fill="black"/>
<path d="M271.818 113.707C271.818 114.277 272.127 114.301 275.976 113.992C279.208 113.754 279.35 113.731 277.497 113.707C276.38 113.683 274.646 113.588 273.648 113.517C272.079 113.374 271.818 113.398 271.818 113.707Z" fill="black"/>
<path d="M285.956 113.635L284.53 113.802L285.956 114.016C287.666 114.277 295.317 114.277 296.648 114.016C297.527 113.849 297.551 113.802 297.004 113.659C296.315 113.445 288.023 113.445 285.956 113.635Z" fill="black"/>
<path d="M314.763 108.057C314.953 108.247 315.214 108.414 315.357 108.414C315.499 108.414 315.618 108.247 315.618 108.057C315.618 107.843 315.38 107.7 315 107.7C314.454 107.7 314.43 107.748 314.763 108.057Z" fill="black"/>
<path d="M272.792 124.264C272.792 124.526 272.864 124.597 272.935 124.407C273.007 124.24 272.983 124.026 272.911 123.955C272.84 123.86 272.768 124.003 272.792 124.264Z" fill="black"/>
<path d="M319.339 144.785C319.006 144.904 318.246 144.999 317.628 145.022C317.01 145.046 316.44 145.141 316.369 145.284C316.298 145.403 315.965 145.522 315.632 145.522C314.777 145.522 312.377 146.806 311.332 147.828C310.191 148.946 309.122 150.586 309.122 151.205C309.122 151.466 309.003 151.704 308.837 151.752C308.433 151.894 308.457 157.102 308.884 158.148C309.811 160.454 312.306 163.118 313.518 163.118C313.708 163.118 313.874 163.213 313.874 163.355C313.874 163.474 314.088 163.593 314.349 163.593C314.611 163.593 314.824 163.688 314.824 163.831C314.824 163.95 315.038 164.069 315.3 164.069C315.561 164.069 315.775 164.164 315.775 164.306C315.775 164.425 316.036 164.544 316.345 164.544C316.678 164.544 317.01 164.639 317.082 164.782C317.153 164.901 317.438 165.02 317.676 165.02C317.913 165.02 318.935 165.4 319.957 165.852C320.955 166.304 321.929 166.684 322.095 166.684C322.285 166.684 322.428 166.779 322.428 166.922C322.428 167.041 322.547 167.16 322.665 167.16C323.069 167.16 324.091 168.277 324.091 168.705C324.091 168.896 324.21 169.062 324.329 169.062C324.471 169.062 324.566 169.656 324.566 170.37C324.566 171.083 324.471 171.678 324.329 171.678C324.21 171.678 324.091 171.82 324.091 171.987C324.091 172.391 323.212 173.176 322.333 173.556C321.477 173.913 315.822 173.937 314.468 173.58C313.945 173.437 313.209 173.223 312.805 173.128C312.425 173.033 311.759 172.771 311.332 172.557C310.191 171.939 309.74 172.034 309.407 172.938C309.241 173.366 309.122 173.96 309.122 174.246C309.122 174.531 309.027 174.769 308.884 174.769C308.766 174.769 308.647 174.983 308.647 175.221C308.647 175.482 308.552 175.767 308.409 175.839C308.29 175.91 308.172 176.243 308.172 176.576C308.172 176.885 308.077 177.147 307.934 177.147C307.815 177.147 307.768 177.313 307.839 177.503C307.934 177.693 308.124 177.86 308.314 177.86C308.504 177.86 308.647 177.955 308.647 178.098C308.647 178.217 308.813 178.335 309.003 178.335C309.217 178.335 309.621 178.478 309.906 178.668C310.191 178.859 311.284 179.192 312.33 179.429C314.753 179.952 322.547 180.166 323.972 179.738C325.968 179.144 328.13 178.288 328.13 178.074C328.13 177.955 328.249 177.86 328.392 177.86C328.819 177.86 330.934 175.553 331.48 174.507C332.455 172.605 332.526 167.778 331.599 165.947C331.385 165.519 331.219 165.091 331.219 164.996C331.219 164.378 328.178 161.453 327.536 161.453C327.346 161.453 327.18 161.334 327.18 161.215C327.18 161.073 326.99 160.977 326.752 160.977C326.515 160.977 326.229 160.882 326.111 160.787C325.968 160.668 325.136 160.288 324.21 159.931C321.834 158.98 321.406 158.814 320.955 158.576C320.717 158.457 320.361 158.362 320.171 158.362C319.98 158.362 319.814 158.243 319.814 158.124C319.814 157.981 319.648 157.886 319.458 157.886C318.816 157.886 317.581 157.125 316.797 156.269C316.131 155.532 316.012 155.247 316.012 154.201C316.012 152.798 316.464 152.156 317.842 151.585C318.84 151.157 324.685 151.062 324.923 151.466C324.994 151.585 325.398 151.704 325.778 151.704C326.158 151.704 326.8 151.918 327.156 152.203C328.249 153.012 328.653 152.75 329.294 150.872C329.603 149.944 329.936 149.16 330.055 149.136C330.174 149.088 330.269 148.803 330.269 148.518C330.269 148.232 330.411 147.852 330.578 147.686C330.958 147.281 330.174 146.639 328.724 146.211C328.13 146.045 327.655 145.807 327.655 145.712C327.655 145.617 327.299 145.522 326.871 145.522C326.443 145.522 325.992 145.427 325.873 145.308C325.445 144.904 320.218 144.499 319.339 144.785Z" fill="#03738B"/>
<path d="M221.684 144.975C220.71 145.022 219.807 145.165 219.688 145.284C219.545 145.427 219.213 145.522 218.928 145.522C217.835 145.522 214.888 147.448 213.677 148.946C213.083 149.659 212.417 151.015 212.417 151.466C212.417 151.728 212.322 151.942 212.18 151.942C212.037 151.942 211.942 153.083 211.942 154.914C211.942 156.745 212.037 157.886 212.18 157.886C212.322 157.886 212.417 158.053 212.417 158.243C212.417 158.647 213.249 160.169 213.748 160.668C213.914 160.859 214.081 161.096 214.081 161.192C214.081 161.287 214.508 161.62 215.031 161.929C215.554 162.262 215.981 162.594 215.981 162.666C215.981 162.737 216.457 162.999 217.051 163.26C217.645 163.498 218.12 163.783 218.12 163.878C218.12 163.974 218.334 164.069 218.595 164.069C218.856 164.069 219.427 164.283 219.902 164.544C220.377 164.806 220.876 165.02 221.042 165.02C221.494 165.02 224.654 166.28 224.725 166.494C224.773 166.589 225.01 166.684 225.272 166.684C225.509 166.684 225.723 166.779 225.723 166.922C225.723 167.041 225.913 167.16 226.151 167.16C226.388 167.16 226.721 167.398 226.911 167.659C227.101 167.945 227.386 168.301 227.553 168.468C227.695 168.61 227.933 169.157 228.075 169.657C228.265 170.417 228.242 170.703 227.814 171.535C226.792 173.532 225.842 173.865 221.446 173.77C218.595 173.675 217.716 173.58 216.338 173.104C215.435 172.795 214.651 172.439 214.603 172.343C214.556 172.248 214.152 172.153 213.7 172.153C212.988 172.153 212.893 172.225 212.893 172.748C212.893 173.081 212.797 173.342 212.655 173.342C212.536 173.342 212.417 173.651 212.417 174.055C212.417 174.436 212.322 174.769 212.203 174.769C212.013 174.769 211.871 175.268 211.562 177.052C211.396 177.908 211.609 178.098 213.249 178.621C217.146 179.929 218.096 180.048 222.919 179.952C227.766 179.857 229.097 179.596 231.402 178.264C232.59 177.575 234.491 175.672 234.514 175.173C234.514 174.959 234.633 174.769 234.752 174.769C234.895 174.769 234.99 174.555 234.99 174.317C234.99 174.055 235.132 173.818 235.298 173.77C235.512 173.675 235.584 172.748 235.584 170.18C235.584 167.731 235.489 166.613 235.298 166.423C235.132 166.256 234.99 165.923 234.99 165.686C234.99 165.162 234.752 164.853 233.326 163.379C231.948 161.976 231.259 161.453 230.855 161.453C230.665 161.453 230.475 161.358 230.428 161.263C230.333 161.025 227.695 159.789 227.268 159.789C227.101 159.789 226.864 159.67 226.792 159.551C226.721 159.408 226.436 159.313 226.175 159.313C225.937 159.313 225.723 159.194 225.723 159.075C225.723 158.933 225.414 158.838 225.01 158.838C224.63 158.838 224.297 158.719 224.297 158.6C224.297 158.457 224.084 158.362 223.822 158.362C223.561 158.362 223.347 158.243 223.347 158.124C223.347 157.981 223.086 157.886 222.753 157.886C222.42 157.886 222.159 157.767 222.159 157.649C222.159 157.506 222.016 157.411 221.826 157.411C221.66 157.411 221.042 157.007 220.496 156.507C219.593 155.699 219.474 155.485 219.45 154.534C219.427 153.131 219.831 152.37 220.971 151.728C221.755 151.3 222.254 151.229 224.963 151.229C226.792 151.229 228.123 151.324 228.218 151.466C228.289 151.585 228.669 151.704 229.026 151.704C229.382 151.704 230.119 151.918 230.641 152.18C231.663 152.679 232.376 152.608 232.376 152.037C232.376 151.847 232.471 151.514 232.59 151.276C232.851 150.729 233.35 149.35 233.493 148.66C233.564 148.375 233.707 148.137 233.825 148.137C233.944 148.137 234.039 147.876 234.039 147.543C234.039 147.115 233.849 146.877 233.398 146.687C233.018 146.544 232.281 146.211 231.711 145.974C231.164 145.736 230.451 145.522 230.166 145.522C229.857 145.522 229.525 145.427 229.406 145.308C229.121 145.046 224.202 144.832 221.684 144.975Z" fill="#03738B"/>
<path d="M21.3843 162.523V179.524H32.5279H43.6477L43.814 178.645C44.0754 176.956 43.9804 173.342 43.6715 173.295C43.5051 173.271 40.1312 173.247 36.187 173.247C32.2427 173.223 28.9401 173.128 28.8213 173.033C28.7262 172.914 28.6312 166.708 28.6312 159.242V145.641L25.0196 145.569L21.3843 145.498V162.523Z" fill="#03738B"/>
<path d="M116.663 162.523V179.524H128.543H140.424V176.433V173.342H132.393C126.452 173.342 124.29 173.271 124.076 173.057C123.768 172.748 123.649 166.137 123.934 165.4C124.053 165.067 124.718 165.02 128.757 164.996C133.01 164.996 137.216 164.758 137.43 164.52C137.477 164.473 137.572 163.165 137.62 161.62L137.715 158.837H131.086C125.668 158.837 124.409 158.766 124.124 158.505C123.72 158.1 123.649 153.321 124.029 152.322L124.267 151.704H131.727H139.188L139.283 148.898C139.331 147.376 139.331 145.974 139.283 145.807C139.212 145.593 136.717 145.522 127.926 145.522H116.663V162.523Z" fill="#03738B"/>
<path d="M216.005 108.713C216.076 109.118 217.169 109.141 234.277 109.213C252.311 109.26 253.119 109.236 253.119 108.523C253.119 108.404 245.04 108.309 234.514 108.309C216.932 108.309 215.934 108.333 216.005 108.713Z" fill="black"/>
<path d="M215.53 118.867C215.601 119.271 216.694 119.295 233.802 119.366C251.836 119.413 252.644 119.39 252.644 118.676C252.644 118.557 244.565 118.462 234.039 118.462C216.457 118.462 215.459 118.486 215.53 118.867Z" fill="black"/>
<path d="M215.815 113.968C215.886 114.373 216.979 114.396 234.087 114.468C252.121 114.515 252.929 114.491 252.929 113.778C252.929 113.659 244.85 113.564 234.324 113.564C216.766 113.564 215.744 113.588 215.815 113.968Z" fill="black"/>
<path d="M215.53 123.931C215.601 124.336 216.694 124.359 233.802 124.431C251.836 124.478 252.644 124.454 252.644 123.741C252.644 123.622 244.565 123.527 234.039 123.527C216.457 123.527 215.459 123.551 215.53 123.931Z" fill="black"/>
<path d="M193.908 113.707C193.979 114.111 195.072 114.135 212.18 114.206C230.214 114.254 231.022 114.23 231.022 113.516C231.022 113.398 222.943 113.302 212.417 113.302C194.835 113.302 193.837 113.326 193.908 113.707Z" fill="black"/>
<path d="M193.908 118.7C193.979 119.104 195.072 119.128 212.18 119.199C230.214 119.247 231.022 119.223 231.022 118.51C231.022 118.391 222.943 118.296 212.417 118.296C194.835 118.296 193.837 118.32 193.908 118.7Z" fill="black"/>
<path d="M193.67 123.931C193.742 124.336 194.835 124.359 211.942 124.431C229.976 124.478 230.784 124.454 230.784 123.741C230.784 123.622 222.705 123.527 212.18 123.527C194.597 123.527 193.599 123.551 193.67 123.931Z" fill="black"/>
<path d="M274.836 108.285C274.907 108.737 276.119 108.761 294.866 108.856C314.634 108.904 315.537 108.88 315.537 108.071C315.537 107.929 306.675 107.834 295.127 107.834C275.857 107.81 274.764 107.857 274.836 108.285Z" fill="black"/>
<path d="M272.412 113.588C272.483 113.968 273.695 113.992 292.371 114.063C312.068 114.111 312.971 114.087 312.971 113.421C312.971 113.303 304.132 113.207 292.632 113.207C273.41 113.207 272.317 113.231 272.412 113.588Z" fill="black"/>
<path d="M271.699 118.51C271.771 119.057 273.078 119.104 293.298 119.199C314.611 119.271 315.561 119.247 315.561 118.248C315.561 118.082 306.009 117.963 293.559 117.963C272.792 117.939 271.604 117.987 271.699 118.51Z" fill="black"/>
<path d="M271.699 124.026C271.771 124.526 273.03 124.573 292.608 124.645C313.256 124.692 314.183 124.668 314.183 123.789C314.183 123.646 304.94 123.527 292.87 123.527C272.745 123.527 271.604 123.575 271.699 124.026Z" fill="black"/>
</g>
<defs>
<clipPath id="clip0_516_278">
<rect width="345" height="180" fill="white"/>
</clipPath>
</defs>
</svg>
