<svg width="69" height="59" viewBox="0 0 69 59" fill="none" xmlns="http://www.w3.org/2000/svg">
<path d="M68.3402 55.5535C68.3402 56.5409 68.3402 57.5284 68.3402 58.5152C45.5601 58.5152 22.7801 58.5152 0 58.5152C0 57.6373 0 56.7601 0 55.8822C0.0850272 56.0459 0.17335 56.2069 0.254423 56.3726C0.904321 57.698 1.94574 58.43 3.43998 58.434C7.27675 58.4432 11.1129 58.4393 14.9496 58.4399C15.0188 58.4399 15.0881 58.43 15.2245 58.4195C14.9971 58.2432 14.8356 58.1 14.657 57.9838C13.6577 57.3324 12.7798 56.5449 12.0403 55.6102C10.5625 53.7416 9.73661 51.6194 9.73463 49.2293C9.72409 35.2768 9.73265 21.3236 9.73397 7.371C9.73397 4.91422 9.73397 2.45744 9.73397 0.000660069C13.1983 0.000660069 16.662 0.000660069 20.1264 0.000660069C20.6946 0.455448 21.2786 0.891094 21.8276 1.36832C23.1116 2.48516 24.1108 3.84887 25.1219 5.20465C26.6452 7.24823 28.1915 9.27464 29.7266 11.309C30.9763 12.9658 32.2187 14.6271 33.4717 16.2813C35.2837 18.674 37.1042 21.0595 38.9161 23.4516C40.0136 24.9005 41.1018 26.3573 42.1979 27.8074C42.2539 27.8814 42.3449 27.9295 42.4991 28.0543C42.4991 27.0299 42.4991 26.1104 42.4991 25.1909C42.5011 20.0688 42.4932 14.9473 42.5143 9.8258C42.5176 8.96573 42.5822 8.09642 42.7239 7.24889C43.0502 5.30168 43.9584 3.62576 45.2754 2.16701C46.04 1.32014 46.9067 0.591423 47.8842 0C51.4362 0 54.9876 0 58.5396 0C58.5251 1.68846 58.4987 3.37626 58.4987 5.06472C58.4981 7.49839 58.5238 9.93273 58.5251 12.3664C58.5297 20.4595 58.531 28.5533 58.5291 36.6464C58.5284 39.4425 58.506 42.2385 58.508 45.0346C58.51 47.2036 58.5693 49.3732 58.533 51.5416C58.5152 52.5884 58.417 53.6485 58.2101 54.6736C57.9523 55.9528 57.5648 57.2083 56.9669 58.4168C57.0625 58.4254 57.1344 58.438 57.2069 58.438C59.7056 58.4353 62.2044 58.4432 64.7024 58.4175C65.1533 58.4129 65.6213 58.3258 66.049 58.1805C66.9382 57.8795 67.5967 57.2835 67.9888 56.4182C68.1174 56.1363 68.2235 55.8426 68.3402 55.5535ZM45.74 58.4201C45.6036 58.2373 45.5113 58.0947 45.4013 57.968C44.5101 56.9502 43.5748 55.968 42.7311 54.9119C41.61 53.5092 40.5626 52.0478 39.4784 50.6161C38.5167 49.3468 37.5432 48.0874 36.5835 46.8168C35.1406 44.9059 33.7077 42.9877 32.2662 41.0761C30.917 39.2874 29.5625 37.5032 28.2099 35.717C27.4322 34.6893 26.6537 33.6622 25.8727 32.6372C25.8384 32.5923 25.7718 32.5711 25.6822 32.515C25.6736 32.6629 25.6624 32.7685 25.6624 32.8741C25.6611 35.1448 25.6591 37.4147 25.6611 39.6854C25.665 45.7508 25.6683 51.8161 25.6769 57.8815C25.6776 58.4901 25.6156 58.4353 26.222 58.4353C32.601 58.4373 38.98 58.438 45.3591 58.438C45.4632 58.438 45.568 58.4281 45.74 58.4201Z" fill="#FEFEFD"/>
<path d="M9.73463 0.000602722C9.73463 2.45738 9.73529 4.91416 9.73463 7.37094C9.73266 21.3235 9.72475 35.2767 9.73529 49.2293C9.73727 51.62 10.5638 53.7422 12.0409 55.6102C12.7805 56.5448 13.6578 57.3323 14.6576 57.9838C14.8363 58.1 14.9971 58.2432 15.2252 58.4194C15.0887 58.43 15.0195 58.4399 14.9503 58.4399C11.1135 58.4392 7.27741 58.4432 3.44064 58.4339C1.9464 58.43 0.90498 57.6986 0.255082 56.3725C0.174009 56.2069 0.0856864 56.0458 0.000659126 55.8821C0 38.045 0 20.2073 0 2.37025C0.0698674 2.26794 0.14303 2.16827 0.208284 2.06332C0.423818 1.72074 0.622215 1.36563 0.854227 1.03427C1.21213 0.521398 1.78096 0.291694 2.30233 0.000602722C4.77932 0.000602722 7.25698 0.000602722 9.73463 0.000602722Z" fill="#D12830"/>
<path d="M68.34 55.5535C68.2233 55.8426 68.1172 56.1363 67.9887 56.4202C67.5965 57.2855 66.9381 57.8815 66.0489 58.1825C65.6211 58.3271 65.1531 58.4149 64.7023 58.4195C62.2042 58.4452 59.7055 58.4373 57.2067 58.44C57.1349 58.44 57.063 58.4274 56.9668 58.4188C57.5646 57.2103 57.9522 55.9548 58.2099 54.6756C58.4162 53.6505 58.5151 52.5904 58.5329 51.5436C58.5691 49.3752 58.5098 47.2056 58.5078 45.0366C58.5059 42.2405 58.5276 39.4445 58.5289 36.6484C58.5309 28.5553 58.5296 20.4615 58.525 12.3684C58.5236 9.93472 58.4979 7.50039 58.4986 5.06671C58.4993 3.37825 58.525 1.69045 58.5395 0.00199127C61.0171 0.00199127 63.4948 0.00199127 65.9718 0.00199127C65.9876 0.0165128 66.0008 0.0376351 66.0199 0.0448958C67.0541 0.436317 67.7376 1.17494 68.1548 2.18418C68.1858 2.25943 68.2767 2.3096 68.34 2.37098C68.34 2.41455 68.34 2.45877 68.34 2.50234C68.34 2.52412 68.34 2.5459 68.34 2.56834C68.34 20.2292 68.34 37.8913 68.34 55.5535Z" fill="#8F9A40"/>
<path d="M47.8841 0.000602722C46.9059 0.592025 46.0398 1.32074 45.2753 2.16761C43.959 3.62571 43.0507 5.30228 42.7238 7.24949C42.5814 8.09702 42.5175 8.96633 42.5142 9.8264C42.4937 14.9479 42.501 20.07 42.499 25.1915C42.499 26.111 42.499 27.0305 42.499 28.0549C42.3448 27.9301 42.2538 27.882 42.1978 27.808C41.1017 26.3579 40.0134 24.9011 38.916 23.4522C37.1041 21.0601 35.2836 18.674 33.4716 16.2819C32.2186 14.6278 30.9762 12.9657 29.7265 11.3096C28.192 9.27458 26.6451 7.24817 25.1218 5.20525C24.1114 3.84947 23.1115 2.48511 21.8275 1.36893C21.2791 0.891037 20.6951 0.454731 20.127 0.000602722C29.3791 0.000602722 38.6313 0.000602722 47.8841 0.000602722Z" fill="#026E97"/>
<path d="M45.7403 58.4202C45.5683 58.4281 45.4635 58.438 45.3587 58.438C38.9797 58.4373 32.6006 58.4367 26.2216 58.4353C25.6152 58.4353 25.6772 58.4901 25.6765 57.8815C25.668 51.8162 25.6647 45.7508 25.6607 39.6854C25.6594 37.4147 25.6607 35.1448 25.662 32.8741C25.662 32.7685 25.6732 32.6629 25.6818 32.515C25.7721 32.5712 25.838 32.5923 25.8723 32.6372C26.6533 33.6622 27.4311 34.69 28.2095 35.717C29.5621 37.5032 30.9172 39.2874 32.2658 41.0762C33.7073 42.9877 35.1403 44.9065 36.5831 46.8168C37.5428 48.0874 38.517 49.3468 39.478 50.6161C40.5622 52.0478 41.6102 53.5092 42.7307 54.9119C43.5744 55.9673 44.5097 56.9502 45.4009 57.968C45.5123 58.0947 45.6045 58.2373 45.7403 58.4202Z" fill="#FEA607"/>
</svg>
