<svg width="402" height="141" viewBox="0 0 402 141" fill="none" xmlns="http://www.w3.org/2000/svg">
<path d="M171.751 52.3927V90.6756H176.785H181.82V64.0386C181.82 49.3831 181.863 37.3572 181.907 37.2987C182.082 37.1231 182.403 37.3861 182.403 37.7224C182.403 37.912 182.477 38.0728 182.549 38.0728C182.636 38.0728 182.695 38.175 182.695 38.292C182.695 38.409 182.753 38.6283 182.827 38.7743C182.958 39.0083 183.352 39.9142 183.819 40.995C183.936 41.2728 184.096 41.6231 184.169 41.755C184.242 41.9009 184.3 42.1202 184.3 42.2372C184.3 42.3542 184.373 42.4565 184.446 42.4565C184.533 42.4565 184.592 42.5883 184.592 42.7342C184.592 42.895 184.665 43.0705 184.738 43.1142C184.825 43.1579 184.883 43.3335 184.883 43.4942C184.883 43.6401 184.956 43.772 185.029 43.772C185.116 43.772 185.175 43.8594 185.175 43.9764C185.175 44.0934 185.409 44.6927 185.685 45.2913C185.963 45.9053 186.196 46.475 186.196 46.5476C186.196 46.635 186.269 46.6935 186.342 46.6935C186.429 46.6935 186.487 46.7957 186.487 46.9128C186.487 47.0298 186.56 47.278 186.663 47.4683C187.013 48.155 187.071 48.3009 187.071 48.5202C187.071 48.6372 187.115 48.7394 187.188 48.7394C187.246 48.7394 187.407 49.0461 187.553 49.4409C187.698 49.8209 187.932 50.3905 188.078 50.712C188.224 51.0335 188.472 51.589 188.647 51.9542C188.807 52.3194 189.114 52.992 189.318 53.4594C189.522 53.9268 189.697 54.3942 189.697 54.5112C189.697 54.6283 189.771 54.7305 189.843 54.7305C189.93 54.7305 189.989 54.8623 189.989 55.0083C189.989 55.169 190.062 55.3445 190.135 55.3883C190.222 55.432 190.28 55.6075 190.28 55.7683C190.28 55.9142 190.354 56.046 190.426 56.046C190.513 56.046 190.572 56.1779 190.572 56.3386C190.572 56.4993 190.645 56.6312 190.718 56.6312C190.805 56.6312 190.863 56.7334 190.863 56.8504C190.863 56.9675 190.922 57.1867 190.995 57.3327C191.301 57.8882 191.885 59.2764 191.885 59.4075C191.885 59.4949 191.958 59.5534 192.031 59.5534C192.118 59.5534 192.177 59.6852 192.177 59.8312C192.177 59.9771 192.366 60.4593 192.585 60.883C192.804 61.3215 193.184 62.1252 193.402 62.6949C193.636 63.2504 193.884 63.7764 193.957 63.8638C194.016 63.9371 194.074 64.112 194.074 64.2586C194.074 64.4052 194.147 64.5216 194.22 64.5216C194.307 64.5216 194.366 64.6534 194.366 64.7993C194.366 64.9601 194.439 65.1356 194.511 65.1793C194.599 65.223 194.657 65.3986 194.657 65.5593C194.657 65.7052 194.73 65.8371 194.803 65.8371C194.89 65.8371 194.949 65.9689 194.949 66.1296C194.949 66.2904 195.022 66.4222 195.095 66.4222C195.182 66.4222 195.24 66.5244 195.24 66.6415C195.24 66.7585 195.299 66.9778 195.372 67.1237C195.459 67.2555 195.693 67.7956 195.927 68.3222C196.146 68.8481 196.38 69.2866 196.437 69.3156C196.495 69.3445 196.554 69.4763 196.554 69.6081C196.554 69.74 196.846 70.4555 197.211 71.2007C197.576 71.9311 197.868 72.6474 197.868 72.7644C197.868 72.8814 197.941 73.0274 198.014 73.0711C198.101 73.1148 198.16 73.2903 198.16 73.4511C198.16 73.597 198.233 73.7288 198.305 73.7288C198.393 73.7288 198.451 73.8607 198.451 74.0214C198.451 74.1822 198.524 74.314 198.597 74.314C198.684 74.314 198.743 74.4162 198.743 74.5332C198.743 74.6503 198.801 74.8695 198.874 75.0155C198.947 75.1473 199.122 75.5266 199.254 75.8481C199.4 76.1695 199.633 76.6955 199.779 77.0022C199.94 77.3236 200.056 77.674 200.056 77.7762C200.056 77.8785 200.1 77.9659 200.173 77.9659C200.319 77.9659 200.64 78.6963 200.64 79.0177C200.64 79.1637 200.713 79.2807 200.786 79.2807C200.873 79.2807 200.932 79.4126 200.932 79.5585C200.932 79.7192 201.005 79.8948 201.077 79.9385C201.165 79.9822 201.223 80.1577 201.223 80.3185C201.223 80.4644 201.296 80.5962 201.369 80.5962C201.456 80.5962 201.515 80.6985 201.515 80.8303C201.515 80.9621 201.602 81.2392 201.719 81.4437C201.836 81.6629 202.04 82.1014 202.172 82.4229C202.317 82.7444 202.566 83.3288 202.755 83.7377C202.931 84.1325 203.208 84.7311 203.339 85.0525C203.485 85.374 203.792 86.0318 204.01 86.4992C204.244 86.9814 204.433 87.4488 204.433 87.5659C204.433 87.6681 204.507 87.7555 204.579 87.7555C204.666 87.7555 204.725 87.9163 204.725 88.1207C204.725 88.3252 204.798 88.4859 204.871 88.4859C204.958 88.4859 205.016 88.6177 205.016 88.7785C205.016 88.9392 205.09 89.071 205.162 89.071C205.249 89.071 205.308 89.1585 205.308 89.2755C205.308 89.3925 205.454 89.7577 205.629 90.0792L205.95 90.6785H210.882H215.815V52.3956V14.1126H210.78H205.746V39.6104C205.746 62.1711 205.717 65.1081 205.527 65.1081C205.41 65.1081 205.308 64.9763 205.308 64.8155C205.308 64.6548 205.249 64.523 205.162 64.523C205.089 64.523 205.016 64.3622 205.016 64.1578C205.016 63.9533 204.958 63.7926 204.871 63.7926C204.797 63.7926 204.725 63.6607 204.725 63.5C204.725 63.3393 204.666 63.2074 204.579 63.2074C204.506 63.2074 204.433 63.12 204.433 63.0178C204.433 62.857 203.572 60.7237 203.251 60.1103C203.178 59.9644 203.119 59.7452 203.119 59.6281C203.119 59.5111 203.061 59.4089 202.974 59.4089C202.9 59.4089 202.828 59.277 202.828 59.1163C202.828 58.9556 202.769 58.8237 202.682 58.8237C202.609 58.8237 202.536 58.7215 202.536 58.5897C202.536 58.4578 202.332 57.9178 202.084 57.3771C201.836 56.8511 201.471 56.0474 201.266 55.6089C201.062 55.1704 200.843 54.6882 200.77 54.5571C200.697 54.4111 200.638 54.1919 200.638 54.0749C200.638 53.9578 200.58 53.8556 200.492 53.8556C200.419 53.8556 200.347 53.7238 200.347 53.5778C200.347 53.4171 200.288 53.2712 200.23 53.2416C200.156 53.2127 199.865 52.5549 199.559 51.766C199.252 50.9919 198.946 50.3489 198.873 50.3489C198.8 50.3489 198.741 50.2319 198.741 50.086C198.741 49.9541 198.552 49.443 198.318 48.9608C197.617 47.5289 197.136 46.3749 197.136 46.1697C197.136 46.0527 197.077 45.9653 196.99 45.9653C196.917 45.9653 196.844 45.8334 196.844 45.6726C196.844 45.5119 196.786 45.3801 196.699 45.3801C196.625 45.3801 196.553 45.2482 196.553 45.1023C196.553 44.9416 196.494 44.766 196.407 44.7223C196.334 44.6786 196.261 44.5031 196.261 44.3423C196.261 44.1964 196.203 44.0645 196.115 44.0645C196.042 44.0645 195.97 43.9327 195.97 43.7868C195.97 43.626 195.911 43.4653 195.838 43.4216C195.765 43.3779 195.663 43.1586 195.604 42.9394C195.561 42.7053 195.254 42.0045 194.947 41.3616C194.655 40.7186 194.305 39.9586 194.174 39.6816C193.678 38.5275 193.036 37.1097 192.905 36.8764C192.817 36.7304 192.759 36.5112 192.759 36.3942C192.759 36.2771 192.7 36.1749 192.613 36.1749C192.54 36.1749 192.467 36.0431 192.467 35.8823C192.467 35.7216 192.409 35.5897 192.322 35.5897C192.248 35.5897 192.176 35.429 192.176 35.2246C192.176 35.0201 192.117 34.8594 192.03 34.8594C191.957 34.8594 191.884 34.772 191.884 34.6549C191.884 34.5527 191.651 33.9682 191.374 33.3542C191.096 32.7401 190.863 32.1416 190.863 32.0246C190.863 31.8927 190.805 31.7905 190.718 31.7905C190.644 31.7905 190.572 31.6587 190.572 31.4979C190.572 31.3372 190.513 31.2053 190.426 31.2053C190.353 31.2053 190.28 31.1179 190.28 31.0009C190.28 30.8839 190.149 30.5476 190.003 30.2268C189.842 29.9201 189.595 29.3646 189.448 28.9846C189.302 28.5898 189.142 28.2831 189.083 28.2831C189.01 28.2831 188.966 28.1513 188.966 28.0054C188.966 27.8446 188.908 27.6691 188.821 27.6254C188.748 27.5817 188.675 27.4061 188.675 27.2454C188.675 27.0994 188.617 26.9676 188.529 26.9676C188.456 26.9676 188.383 26.8506 188.383 26.7046C188.383 26.5587 188.325 26.3832 188.267 26.2958C188.193 26.2224 187.96 25.6965 187.727 25.1417C187.493 24.572 187.186 23.8994 187.041 23.6365C186.895 23.3735 186.778 23.0668 186.778 22.9498C186.778 22.8328 186.72 22.7305 186.632 22.7305C186.559 22.7305 186.487 22.5698 186.487 22.3654C186.487 22.1609 186.428 22.0002 186.341 22.0002C186.268 22.0002 186.195 21.9128 186.195 21.7957C186.195 21.6787 186.078 21.3424 185.918 21.0216C185.772 20.715 185.465 20.0424 185.232 19.5165C184.999 18.9905 184.765 18.5372 184.707 18.5231C184.633 18.4942 184.59 18.3772 184.59 18.2601C184.59 18.1431 184.531 17.9387 184.458 17.7927C184.108 17.1498 183.421 15.5276 183.334 15.2061C183.291 15.0016 183.188 14.7972 183.115 14.7535C183.042 14.7098 182.984 14.549 182.984 14.3883C182.984 14.2127 182.881 14.1105 182.691 14.1105C182.385 14.1105 182.312 14.3883 182.531 14.812C182.604 14.9438 182.735 15.2209 182.823 15.426C182.91 15.6305 183.203 16.3031 183.494 16.946C183.771 17.5742 184.005 18.1882 184.005 18.2905C184.005 18.4075 184.078 18.4949 184.15 18.4949C184.238 18.4949 184.296 18.6267 184.296 18.7727C184.296 18.9334 184.369 19.109 184.442 19.1527C184.529 19.1964 184.588 19.3719 184.588 19.5327C184.588 19.6786 184.661 19.8104 184.733 19.8104C184.821 19.8104 184.879 19.9127 184.879 20.0149C184.879 20.1319 185.04 20.5408 185.244 20.9208C185.448 21.3008 185.609 21.6808 185.609 21.7682C185.609 21.8556 185.871 22.4549 186.192 23.0978C186.513 23.7408 186.776 24.3838 186.776 24.5149C186.776 24.6608 186.849 24.7779 186.922 24.7779C187.009 24.7779 187.067 24.8653 187.067 24.9534C187.067 25.0557 187.243 25.509 187.462 25.9468C187.666 26.3853 187.9 26.8675 187.972 26.9986C188.031 27.1446 188.089 27.3638 188.089 27.4808C188.089 27.5979 188.162 27.7001 188.235 27.7001C188.322 27.7001 188.381 27.8319 188.381 27.9927C188.381 28.1534 188.454 28.2852 188.526 28.2852C188.614 28.2852 188.672 28.3875 188.672 28.5045C188.672 28.6215 188.731 28.8408 188.804 28.9867C188.877 29.1186 189.038 29.4689 189.154 29.7467C189.285 30.0245 189.577 30.6964 189.825 31.2519C190.073 31.7926 190.278 32.3334 190.278 32.4504C190.278 32.5674 190.351 32.6696 190.423 32.6696C190.511 32.6696 190.569 32.8015 190.569 32.9622C190.569 33.1229 190.642 33.2548 190.715 33.2548C190.802 33.2548 190.861 33.3866 190.861 33.5326C190.861 33.6933 190.934 33.8688 191.006 33.9125C191.08 33.9562 191.152 34.1318 191.152 34.2925C191.152 34.4385 191.225 34.5703 191.298 34.5703C191.385 34.5703 191.444 34.6873 191.444 34.8333C191.444 34.9792 191.546 35.2281 191.663 35.3888C191.779 35.5348 191.882 35.7836 191.882 35.9148C191.882 36.0607 191.955 36.1777 192.027 36.1777C192.115 36.1777 192.173 36.3385 192.173 36.5429C192.173 36.7473 192.246 36.9081 192.319 36.9081C192.406 36.9081 192.465 37.0103 192.465 37.1273C192.465 37.3318 192.727 37.9015 192.903 38.077C192.946 38.1207 193.063 38.4133 193.18 38.7348C193.369 39.2607 194.187 41.1163 194.523 41.7592C194.596 41.9051 194.654 42.1244 194.654 42.2414C194.654 42.3585 194.728 42.4607 194.8 42.4607C194.887 42.4607 194.946 42.5925 194.946 42.7533C194.946 42.914 195.004 43.0458 195.063 43.0458C195.121 43.0458 195.267 43.294 195.369 43.5866C195.749 44.6969 196.04 45.3836 196.157 45.3836C196.215 45.3836 196.259 45.5155 196.259 45.6762C196.259 45.8369 196.332 45.9688 196.405 45.9688C196.492 45.9688 196.551 46.0858 196.551 46.2317C196.551 46.3636 196.813 47.0206 197.134 47.6784C197.441 48.3362 197.747 49.0376 197.805 49.2421C197.849 49.4613 197.951 49.6658 198.024 49.7095C198.098 49.7532 198.156 49.9139 198.156 50.0747C198.156 50.2206 198.229 50.3525 198.302 50.3525C198.389 50.3525 198.448 50.4843 198.448 50.645C198.448 50.8058 198.521 50.9376 198.593 50.9376C198.681 50.9376 198.739 51.0694 198.739 51.2154C198.739 51.3761 198.812 51.5517 198.885 51.5954C198.972 51.6391 199.031 51.8146 199.031 51.9754C199.031 52.1213 199.074 52.2531 199.147 52.2531C199.206 52.2531 199.323 52.4724 199.41 52.7206C199.79 53.8457 200.14 54.6642 200.242 54.7079C200.3 54.7368 200.344 54.8835 200.344 55.0442C200.344 55.1902 200.417 55.322 200.49 55.322C200.577 55.322 200.635 55.4538 200.635 55.5998C200.635 55.7605 200.709 55.9361 200.781 55.9798C200.868 56.0235 200.927 56.199 200.927 56.345C200.927 56.4909 200.97 56.6375 201.044 56.6664C201.189 56.7249 201.948 58.3465 201.948 58.6101C201.948 58.7272 202.022 58.8294 202.094 58.8294C202.182 58.8294 202.24 58.9316 202.24 59.0486C202.24 59.1656 202.372 59.4871 202.532 59.779C202.693 60.0716 202.824 60.3924 202.824 60.5094C202.824 60.6264 202.868 60.7286 202.941 60.7286C203 60.7286 203.131 60.9768 203.219 61.2983C203.379 61.7805 204.197 63.6509 204.59 64.4108C204.664 64.5568 204.722 64.7761 204.722 64.8931C204.722 65.0101 204.795 65.1123 204.868 65.1123C204.955 65.1123 205.014 65.2442 205.014 65.4049C205.014 65.5656 205.087 65.6975 205.159 65.6975C205.247 65.6975 205.305 65.8582 205.305 66.0479C205.305 66.2375 205.392 66.4279 205.494 66.4568C205.728 66.5442 205.844 73.0027 205.597 73.0027C205.509 73.0027 205.378 72.8271 205.29 72.6079C205.086 72.0523 204.78 71.3953 204.05 69.8316C203.7 69.0864 203.407 68.4145 203.407 68.3264C203.407 68.2383 203.349 68.0635 203.276 67.9175C203.203 67.7857 203.086 67.5086 202.998 67.3035C202.911 67.099 202.56 66.339 202.239 65.6235C201.903 64.8931 201.524 64.0457 201.408 63.7242C201.276 63.4027 201.115 63.0812 201.043 62.9938C200.985 62.9205 200.926 62.7457 200.926 62.599C200.926 62.4524 200.868 62.3361 200.78 62.3361C200.707 62.3361 200.635 62.1753 200.635 61.9709C200.635 61.7664 200.576 61.6056 200.489 61.6056C200.416 61.6056 200.343 61.4738 200.343 61.3131C200.343 61.1523 200.285 61.0205 200.197 61.0205C200.124 61.0205 200.052 60.9183 200.052 60.8161C200.052 60.699 199.818 60.0998 199.541 59.4716C199.264 58.8576 199.031 58.259 199.031 58.1568C199.031 58.0398 198.972 57.9524 198.885 57.9524C198.812 57.9524 198.739 57.8205 198.739 57.6746C198.739 57.5138 198.681 57.3383 198.593 57.2946C198.52 57.2509 198.448 57.0753 198.448 56.9146C198.448 56.7686 198.389 56.6368 198.302 56.6368C198.229 56.6368 198.156 56.5198 198.156 56.3738C198.156 56.242 198.054 55.9939 197.922 55.8331C197.805 55.6724 197.645 55.3072 197.558 55.0005C197.484 54.6938 197.353 54.445 197.28 54.445C197.193 54.445 197.134 54.3279 197.134 54.182C197.134 53.8605 196.813 53.1302 196.668 53.1302C196.594 53.1302 196.551 53.0279 196.551 52.9109C196.551 52.7938 196.492 52.5746 196.419 52.4287C196.098 51.8442 195.237 49.9153 195.237 49.7983C195.237 49.5939 194.872 48.8924 194.77 48.8924C194.697 48.8924 194.653 48.7317 194.653 48.5272C194.653 48.3228 194.595 48.162 194.507 48.162C194.434 48.162 194.362 48.0746 194.362 47.9724C194.362 47.7968 194.012 46.9931 193.325 45.6346C193.179 45.3131 193.048 44.9768 193.048 44.8605C193.048 44.7442 192.989 44.656 192.902 44.656C192.829 44.656 192.756 44.4953 192.756 44.2909C192.756 44.0864 192.698 43.9257 192.61 43.9257C192.537 43.9257 192.465 43.7938 192.465 43.6331C192.465 43.4724 192.406 43.3405 192.319 43.3405C192.246 43.3405 192.173 43.2383 192.173 43.1361C192.173 43.019 191.939 42.4198 191.663 41.7916C191.385 41.1776 191.152 40.579 191.152 40.4768C191.152 40.3598 191.094 40.2724 191.006 40.2724C190.933 40.2724 190.861 40.1405 190.861 39.9798C190.861 39.819 190.802 39.6872 190.715 39.6872C190.642 39.6872 190.569 39.5554 190.569 39.3946C190.569 39.2339 190.511 39.1021 190.423 39.1021C190.35 39.1021 190.278 38.9413 190.278 38.7369C190.278 38.5324 190.219 38.3717 190.132 38.3717C190.059 38.3717 189.986 38.2843 189.986 38.1672C189.986 37.9776 189.227 36.2094 188.673 35.1132C188.512 34.7917 188.381 34.4265 188.381 34.2806C188.381 34.1346 188.322 33.988 188.264 33.9591C188.132 33.9154 187.359 32.308 187.359 32.0887C187.359 32.0154 187.227 31.7235 187.067 31.431C186.906 31.1384 186.775 30.8176 186.775 30.7006C186.775 30.5836 186.716 30.4813 186.629 30.4813C186.556 30.4813 186.483 30.3939 186.483 30.2769C186.483 30.1598 186.351 29.8243 186.206 29.5028C186.045 29.1961 185.826 28.7139 185.709 28.4361C185.184 27.2087 184.571 25.8643 184.44 25.6309C184.352 25.485 184.294 25.2657 184.294 25.1487C184.294 25.0317 184.235 24.9294 184.148 24.9294C184.075 24.9294 184.002 24.7687 184.002 24.5643C184.002 24.3598 183.944 24.1991 183.857 24.1991C183.783 24.1991 183.711 24.1406 183.711 24.0531C183.711 23.9213 183.127 22.5331 182.821 21.9783C182.748 21.8324 182.689 21.6131 182.689 21.4961C182.689 21.3791 182.631 21.2768 182.543 21.2768C182.47 21.2768 182.398 21.1894 182.398 21.0872C182.398 20.985 182.266 20.6346 182.12 20.3131C181.537 19.1146 181.084 18.019 181.084 17.8294C181.084 17.7124 181.025 17.6249 180.938 17.6249C180.865 17.6249 180.792 17.4931 180.792 17.3324C180.792 17.1716 180.734 17.0398 180.647 17.0398C180.573 17.0398 180.501 16.8791 180.501 16.6746C180.501 16.4702 180.442 16.3094 180.355 16.3094C180.282 16.3094 180.209 16.1776 180.209 16.0168C180.209 15.8561 180.151 15.7243 180.064 15.7243C179.99 15.7243 179.918 15.5924 179.918 15.4465C179.918 15.2858 179.859 15.125 179.786 15.0665C179.713 15.0228 179.611 14.7887 179.552 14.5554C179.479 14.2487 179.363 14.1169 179.173 14.1169C178.881 14.1169 178.793 14.4673 179.041 14.628C179.128 14.6717 179.187 14.8324 179.187 14.9643C179.187 15.0961 179.362 15.5339 179.552 15.9435C179.756 16.3383 179.916 16.762 179.916 16.8494C179.916 16.9517 179.99 17.0391 180.062 17.0391C180.149 17.0391 180.208 17.1561 180.208 17.302C180.208 17.4339 180.471 18.0909 180.792 18.7487C181.098 19.4065 181.404 20.108 181.463 20.3124C181.506 20.5317 181.608 20.7361 181.682 20.7798C181.755 20.8235 181.813 20.9843 181.813 21.145C181.813 21.291 181.886 21.4228 181.959 21.4228C182.046 21.4228 182.105 21.5546 182.105 21.7154C182.105 21.8761 182.178 22.0079 182.251 22.0079C182.338 22.0079 182.396 22.1397 182.396 22.2857C182.396 22.4464 182.455 22.622 182.542 22.6657C182.629 22.7094 182.688 22.885 182.688 23.0457C182.688 23.1916 182.761 23.3235 182.834 23.3235C182.921 23.3235 182.979 23.4553 182.979 23.616C182.979 23.7768 183.053 23.9086 183.125 23.9086C183.212 23.9086 183.271 23.996 183.271 24.113C183.271 24.2301 183.475 24.7708 183.709 25.3115C183.957 25.8523 184.264 26.539 184.395 26.8167C184.511 27.1093 184.847 27.8249 185.11 28.3945C185.387 28.979 185.606 29.5197 185.606 29.6071C185.606 29.6804 185.738 29.9723 185.899 30.2649C186.059 30.5575 186.191 30.8782 186.191 30.9953C186.191 31.1123 186.264 31.2145 186.337 31.2145C186.424 31.2145 186.482 31.3464 186.482 31.5071C186.482 31.6678 186.556 31.7997 186.628 31.7997C186.715 31.7997 186.774 31.9019 186.774 32.0189C186.774 32.1359 186.832 32.3552 186.906 32.5011C186.979 32.633 187.139 32.9834 187.255 33.2611C187.752 34.4011 188.394 35.833 188.525 36.0663C188.612 36.2123 188.671 36.4315 188.671 36.5485C188.671 36.6656 188.744 36.7678 188.817 36.7678C188.904 36.7678 188.962 36.8552 188.962 36.9575C188.962 37.0597 189.079 37.4101 189.24 37.7316C189.502 38.3012 189.911 39.2071 190.13 39.7626C190.203 39.9234 190.334 40.2738 190.451 40.5226C190.553 40.7856 190.685 41.0048 190.743 41.0048C190.816 41.0048 190.86 41.1367 190.86 41.2974C190.86 41.4582 190.904 41.59 190.977 41.59C191.035 41.59 191.152 41.8093 191.239 42.0574C191.619 43.1826 191.969 44.0011 192.071 44.0448C192.129 44.0737 192.173 44.2204 192.173 44.3811C192.173 44.527 192.246 44.6589 192.319 44.6589C192.406 44.6589 192.465 44.7463 192.465 44.8633C192.465 44.9803 192.669 45.4478 192.903 45.9011C193.15 46.3544 193.341 46.807 193.341 46.8944C193.341 47.0404 194.143 48.8381 194.523 49.51C194.596 49.6559 194.654 49.89 194.654 50.0507C194.654 50.2114 194.713 50.3574 194.771 50.387C194.903 50.4455 195.676 51.9944 195.676 52.2137C195.676 52.3011 195.88 52.7544 196.114 53.207C196.362 53.6603 196.552 54.1277 196.552 54.2448C196.552 54.3618 196.625 54.4492 196.698 54.4492C196.785 54.4492 196.844 54.6099 196.844 54.8144C196.844 55.0188 196.887 55.1796 196.96 55.1796C197.019 55.1796 197.15 55.3988 197.253 55.647C197.37 55.91 197.501 56.261 197.574 56.4211C197.632 56.5818 197.924 57.21 198.216 57.8093C198.508 58.4085 198.741 59.0218 198.741 59.1685C198.741 59.3003 198.814 59.4166 198.887 59.4166C198.974 59.4166 199.033 59.5041 199.033 59.6063C199.033 59.7085 199.193 60.147 199.397 60.5559C199.602 60.9796 199.762 61.3744 199.762 61.447C199.762 61.5344 199.966 61.973 200.2 62.4404C200.448 62.893 200.638 63.3611 200.638 63.4633C200.638 63.5656 200.711 63.653 200.784 63.653C200.871 63.653 200.93 63.7404 200.93 63.8574C200.93 63.9596 201.222 64.6759 201.587 65.45C201.951 66.2241 202.244 66.9552 202.244 67.0863C202.244 67.2034 202.317 67.3056 202.389 67.3056C202.477 67.3056 202.535 67.4374 202.535 67.5833C202.535 67.7441 202.608 67.9196 202.681 67.9634C202.768 68.0071 202.827 68.1826 202.827 68.3434C202.827 68.4893 202.9 68.6211 202.972 68.6211C203.06 68.6211 203.118 68.7233 203.118 68.8552C203.118 68.987 203.337 69.5715 203.614 70.1411C203.877 70.7107 204.183 71.3974 204.3 71.6463C204.417 71.9092 204.548 72.1285 204.607 72.1285C204.68 72.1285 204.723 72.2603 204.723 72.4211C204.723 72.5818 204.797 72.7136 204.869 72.7136C204.957 72.7136 205.015 72.8744 205.015 73.0788C205.015 73.2685 205.161 73.6781 205.336 73.9848C205.642 74.4959 205.672 74.7736 205.744 77.5795C205.803 80.2099 205.788 80.604 205.599 80.604C205.38 80.604 205.015 79.99 205.015 79.6248C205.015 79.5225 204.957 79.4351 204.869 79.4351C204.796 79.4351 204.723 79.2744 204.723 79.0699C204.723 78.8655 204.665 78.7047 204.578 78.7047C204.504 78.7047 204.432 78.5729 204.432 78.4122C204.432 78.2514 204.373 78.1196 204.315 78.1196C204.257 78.1196 204.009 77.6226 203.775 77.0092C203.541 76.41 203.308 75.884 203.235 75.8403C203.176 75.7966 203.118 75.6359 203.118 75.4751C203.118 75.3292 203.06 75.1973 202.972 75.1973C202.899 75.1973 202.827 75.0655 202.827 74.9196C202.827 74.7588 202.695 74.3937 202.549 74.0722C202.389 73.7655 202.155 73.2537 202.024 72.9322C201.892 72.6107 201.659 72.0996 201.499 71.7922C201.353 71.4707 201.221 71.1344 201.221 71.0181C201.221 70.9018 201.163 70.8137 201.075 70.8137C201.002 70.8137 200.93 70.6818 200.93 70.5359C200.93 70.3751 200.871 70.1996 200.784 70.1559C200.711 70.1122 200.638 69.9366 200.638 69.7759C200.638 69.63 200.58 69.4981 200.492 69.4981C200.419 69.4981 200.347 69.4107 200.347 69.2937C200.347 69.1767 200.054 68.4463 199.69 67.6574C199.325 66.8833 199.033 66.1522 199.033 66.05C199.033 65.9329 198.974 65.8455 198.887 65.8455C198.814 65.8455 198.741 65.6848 198.741 65.4803C198.741 65.2759 198.683 65.1152 198.595 65.1152C198.522 65.1152 198.45 64.9833 198.45 64.8226C198.45 64.6619 198.391 64.53 198.304 64.53C198.231 64.53 198.158 64.4278 198.158 64.3107C198.158 64.1937 198.1 63.9745 198.012 63.8285C197.939 63.6967 197.706 63.1856 197.502 62.7034C196.831 61.1397 196.772 61.0233 196.67 61.0233C196.597 61.0233 196.553 60.9063 196.553 60.7604C196.553 60.6285 196.32 60.03 196.043 59.4596C195.766 58.8752 195.532 58.3345 195.532 58.2471C195.532 58.1596 195.474 57.9841 195.401 57.8381C195.328 57.7063 195.167 57.3707 195.065 57.1078C194.963 56.8596 194.831 56.6404 194.773 56.6404C194.699 56.6404 194.656 56.5381 194.656 56.4211C194.656 56.304 194.597 56.0848 194.524 55.9389C194.276 55.4715 193.459 53.6448 193.225 53.0603C193.108 52.7389 192.948 52.4174 192.875 52.3441C192.817 52.2567 192.758 52.0811 192.758 51.9352C192.758 51.7892 192.7 51.6722 192.612 51.6722C192.539 51.6722 192.467 51.5404 192.467 51.3796C192.467 51.2189 192.408 51.0871 192.321 51.0871C192.248 51.0871 192.175 50.9263 192.175 50.7219C192.175 50.5174 192.117 50.3567 192.029 50.3567C191.956 50.3567 191.884 50.2692 191.884 50.167C191.884 50.05 191.723 49.6411 191.519 49.2463C191.315 48.8515 191.154 48.4426 191.154 48.3404C191.154 48.253 191.096 48.1648 191.008 48.1648C190.935 48.1648 190.863 48.0041 190.863 47.7996C190.863 47.5952 190.804 47.4345 190.717 47.4345C190.644 47.4345 190.571 47.3026 190.571 47.1419C190.571 46.9812 190.513 46.8493 190.425 46.8493C190.352 46.8493 190.28 46.7175 190.28 46.5567C190.28 46.396 190.236 46.2642 190.163 46.2642C190.104 46.2642 189.973 46.0012 189.885 45.6797C189.783 45.373 189.462 44.6279 189.185 44.0575C188.907 43.4731 188.674 42.8738 188.674 42.7279C188.674 42.5819 188.616 42.4649 188.529 42.4649C188.455 42.4649 188.383 42.3331 188.383 42.1723C188.383 42.0116 188.324 41.8798 188.266 41.8798C188.193 41.8798 188.018 41.5146 187.872 41.0761C187.711 40.6376 187.55 40.2724 187.507 40.2724C187.463 40.2724 187.332 39.9798 187.229 39.6146C187.127 39.2494 186.982 38.9568 186.908 38.9568C186.835 38.9568 186.777 38.825 186.777 38.6791C186.777 38.5183 186.718 38.3428 186.631 38.2991C186.558 38.2554 186.485 38.0798 186.485 37.9191C186.485 37.7731 186.427 37.6413 186.339 37.6413C186.266 37.6413 186.194 37.5539 186.194 37.4517C186.194 37.3346 186.004 36.8524 185.756 36.3561C185.522 35.8591 185.318 35.4064 185.318 35.3768C185.318 35.3331 185.157 34.968 184.953 34.5443C184.749 34.1354 184.588 33.6968 184.588 33.5946C184.588 33.4924 184.53 33.405 184.442 33.405C184.369 33.405 184.297 33.2442 184.297 33.0398C184.297 32.8353 184.238 32.6746 184.151 32.6746C184.078 32.6746 184.005 32.5871 184.005 32.4849C184.005 32.3827 183.845 31.9442 183.64 31.5353C183.436 31.1116 183.276 30.7168 183.276 30.6294C183.276 30.556 183.217 30.4834 183.13 30.4834C183.057 30.4834 182.984 30.3516 182.984 30.2057C182.984 30.0449 182.926 29.8694 182.838 29.8257C182.765 29.782 182.693 29.6064 182.693 29.4457C182.693 29.2997 182.634 29.1679 182.547 29.1679C182.474 29.1679 182.401 29.0657 182.401 28.9487C182.401 28.8316 182.343 28.6124 182.255 28.4664C182.124 28.2324 181.482 26.8005 180.986 25.6613C180.869 25.3835 180.708 25.0331 180.636 24.9012C180.563 24.7553 180.504 24.5361 180.504 24.419C180.504 24.302 180.446 24.1998 180.359 24.1998C180.285 24.1998 180.213 24.0679 180.213 23.922C180.213 23.7612 180.154 23.5857 180.067 23.542C179.994 23.4983 179.921 23.3228 179.921 23.162C179.921 23.0161 179.863 22.8842 179.776 22.8842C179.702 22.8842 179.63 22.7968 179.63 22.6798C179.63 22.5776 179.338 21.8324 178.959 21.0435C178.594 20.2398 178.229 19.4361 178.141 19.2316C178.054 19.0272 177.937 18.7494 177.864 18.6176C177.791 18.4716 177.732 18.2524 177.732 18.1354C177.732 18.0183 177.674 17.9161 177.586 17.9161C177.513 17.9161 177.441 17.8139 177.441 17.6969C177.441 17.4339 176.974 16.3961 176.828 16.3376C176.755 16.3087 176.711 16.1621 176.711 16.0013C176.711 15.8554 176.653 15.7235 176.565 15.7235C176.492 15.7235 176.42 15.5628 176.42 15.3584C176.42 15.1539 176.361 14.9932 176.288 14.9932C176.215 14.9932 176.127 14.8472 176.099 14.6865C176.055 14.3502 175.617 13.985 175.456 14.1458C175.413 14.2043 175.471 14.4524 175.602 14.7154C175.734 14.9784 175.836 15.2998 175.836 15.4606C175.836 15.6065 175.909 15.7235 175.982 15.7235C176.069 15.7235 176.127 15.8554 176.127 16.0013C176.127 16.1621 176.201 16.3376 176.273 16.3813C176.361 16.425 176.419 16.6006 176.419 16.7613C176.419 16.9072 176.492 17.0391 176.565 17.0391C176.652 17.0391 176.71 17.1709 176.71 17.3316C176.71 17.4924 176.784 17.6243 176.856 17.6243C176.944 17.6243 177.002 17.7265 177.002 17.8287C177.002 17.9457 177.236 18.545 177.512 19.1731C177.79 19.7865 178.023 20.3857 178.023 20.4879C178.023 20.605 178.096 20.6924 178.169 20.6924C178.256 20.6924 178.314 20.8242 178.314 20.985C178.314 21.1457 178.388 21.2775 178.46 21.2775C178.548 21.2775 178.606 21.365 178.606 21.4672C178.606 21.5546 178.84 22.125 179.116 22.6946C179.394 23.2791 179.627 23.8198 179.627 23.8931C179.627 23.9805 179.759 24.2731 179.919 24.565C180.08 24.8575 180.211 25.179 180.211 25.2953C180.211 25.4124 180.285 25.5146 180.357 25.5146C180.444 25.5146 180.503 25.6464 180.503 25.8072C180.503 25.9679 180.547 26.0997 180.62 26.0997C180.678 26.0997 180.809 26.3627 180.897 26.6842C181.073 27.2101 181.67 28.6131 181.977 29.1975C182.051 29.3434 182.109 29.5627 182.109 29.6798C182.109 29.7968 182.182 29.899 182.255 29.899C182.342 29.899 182.401 30.0308 182.401 30.1916C182.401 30.3523 182.474 30.4841 182.546 30.4841C182.634 30.4841 182.692 30.616 182.692 30.7767C182.692 30.9374 182.765 31.0693 182.838 31.0693C182.925 31.0693 182.984 31.1567 182.984 31.2589C182.984 31.4345 183.524 32.7056 183.859 33.2901C183.947 33.436 184.005 33.6552 184.005 33.7723C184.005 33.8893 184.078 33.9915 184.151 33.9915C184.238 33.9915 184.297 34.0937 184.297 34.2108C184.297 34.3278 184.355 34.5471 184.428 34.693C184.866 35.5256 185.611 37.25 185.611 37.4256C185.611 37.5426 185.684 37.6737 185.756 37.7181C185.844 37.7618 185.902 37.9374 185.902 38.0981C185.902 38.2441 185.975 38.3759 186.048 38.3759C186.135 38.3759 186.194 38.5078 186.194 38.6685C186.194 38.8292 186.267 38.9611 186.339 38.9611C186.427 38.9611 186.485 39.1218 186.485 39.3262C186.485 39.5307 186.558 39.6914 186.631 39.6914C186.718 39.6914 186.777 39.8233 186.777 39.984C186.777 40.1447 186.85 40.2766 186.922 40.2766C187.01 40.2766 187.068 40.3936 187.068 40.5395C187.068 40.6855 187.127 40.861 187.185 40.9485C187.258 41.0218 187.491 41.5329 187.725 42.1026C187.944 42.6581 188.192 43.184 188.265 43.2566C188.324 43.344 188.382 43.5196 188.382 43.6655C188.382 43.8115 188.441 43.9285 188.499 43.9285C188.572 43.9285 188.718 44.2063 188.835 44.5425C188.937 44.8929 189.185 45.4337 189.36 45.7551C189.55 46.0766 189.696 46.4566 189.696 46.5877C189.696 46.7337 189.769 46.8507 189.842 46.8507C189.929 46.8507 189.987 47.0115 189.987 47.2159C189.987 47.4204 190.061 47.5811 190.133 47.5811C190.221 47.5811 190.279 47.7129 190.279 47.8737C190.279 48.0344 190.352 48.1662 190.425 48.1662C190.512 48.1662 190.57 48.2981 190.57 48.444C190.57 48.6047 190.644 48.7803 190.716 48.824C190.804 48.8677 190.862 49.0433 190.862 49.204C190.862 49.35 190.935 49.4818 191.008 49.4818C191.095 49.4818 191.154 49.5692 191.154 49.6862C191.154 49.7885 191.387 50.3729 191.664 50.987C191.941 51.601 192.174 52.1996 192.174 52.3166C192.174 52.4484 192.248 52.5506 192.32 52.5506C192.408 52.5506 192.466 52.6825 192.466 52.8432C192.466 53.0039 192.539 53.1358 192.612 53.1358C192.699 53.1358 192.758 53.2232 192.758 53.3113C192.758 53.501 192.903 53.8225 193.691 55.4736C193.895 55.9121 194.071 56.3647 194.071 56.4669C194.071 56.5543 194.144 56.6425 194.216 56.6425C194.304 56.6425 194.362 56.8032 194.362 57.0077C194.362 57.2121 194.435 57.3728 194.508 57.3728C194.595 57.3728 194.654 57.4603 194.654 57.5625C194.654 57.6795 194.741 57.9573 194.858 58.1906C194.975 58.4247 195.208 58.9358 195.368 59.3447C195.544 59.7395 195.748 60.1921 195.821 60.324C195.908 60.4699 195.967 60.6892 195.967 60.8062C195.967 60.9232 196.04 61.0254 196.113 61.0254C196.2 61.0254 196.258 61.1573 196.258 61.3032C196.258 61.4639 196.332 61.6395 196.404 61.6832C196.492 61.7269 196.55 61.9025 196.55 62.0632C196.55 62.2091 196.623 62.341 196.696 62.341C196.783 62.341 196.841 62.4284 196.841 62.5454C196.841 62.6625 196.973 62.998 197.119 63.3195C197.279 63.6262 197.586 64.2988 197.819 64.8247C198.038 65.3506 198.272 65.7891 198.33 65.818C198.388 65.8469 198.447 65.9936 198.447 66.1543C198.447 66.3002 198.52 66.4321 198.593 66.4321C198.68 66.4321 198.738 66.5639 198.738 66.7247C198.738 66.8854 198.797 67.1336 198.87 67.2802C198.943 67.412 199.191 67.9232 199.41 68.4054C199.629 68.8876 199.863 69.3987 199.935 69.5306C199.994 69.6765 200.052 69.8957 200.052 70.0128C200.052 70.1298 200.125 70.2321 200.198 70.2321C200.285 70.2321 200.344 70.3639 200.344 70.5246C200.344 70.6854 200.417 70.8172 200.49 70.8172C200.577 70.8172 200.635 70.9779 200.635 71.1824C200.635 71.3868 200.709 71.5476 200.781 71.5476C200.868 71.5476 200.927 71.635 200.927 71.7372C200.927 71.8542 201.146 72.395 201.408 72.9498C201.671 73.5047 201.977 74.192 202.094 74.4698C202.196 74.7476 202.342 75.0394 202.415 75.1276C202.474 75.2009 202.532 75.3757 202.532 75.5224C202.532 75.6683 202.605 75.7853 202.678 75.7853C202.765 75.7853 202.824 75.9172 202.824 76.0631C202.824 76.2238 202.897 76.3994 202.969 76.4431C203.057 76.4868 203.115 76.6327 203.115 76.7498C203.115 77.0127 203.874 78.6201 204.035 78.6786C204.093 78.7075 204.137 78.8542 204.137 79.0001C204.137 79.146 204.21 79.3216 204.283 79.3653C204.37 79.409 204.428 79.5846 204.428 79.7453C204.428 79.8913 204.502 80.0231 204.574 80.0231C204.661 80.0231 204.72 80.1549 204.72 80.3157C204.72 80.4764 204.793 80.6082 204.866 80.6082C204.953 80.6082 205.011 80.7979 205.011 81.0467C205.011 81.2808 205.055 81.4852 205.128 81.4852C205.187 81.4852 205.347 81.7482 205.493 82.0697C205.843 82.8882 205.873 88.4986 205.522 88.4986C205.405 88.4986 205.303 88.3667 205.303 88.2208C205.303 88.0601 205.244 87.8846 205.157 87.8408C205.084 87.7971 205.011 87.6216 205.011 87.4608C205.011 87.3149 204.953 87.1831 204.866 87.1831C204.792 87.1831 204.72 87.0957 204.72 86.9786C204.72 86.8616 204.486 86.3357 204.209 85.8097C203.932 85.269 203.699 84.772 203.699 84.6994C203.699 84.6267 203.51 84.1297 203.261 83.6038C203.027 83.0779 202.823 82.5519 202.823 82.4349C202.823 82.3179 202.765 82.2156 202.677 82.2156C202.604 82.2156 202.532 82.0838 202.532 81.9379C202.532 81.7771 202.473 81.6016 202.386 81.5579C202.313 81.5142 202.24 81.3386 202.24 81.1779C202.24 81.0319 202.182 80.9001 202.094 80.9001C202.021 80.9001 201.948 80.8127 201.948 80.6957C201.948 80.5786 201.715 79.9794 201.438 79.3808C201.161 78.7668 200.927 78.1971 200.927 78.1245C200.927 78.0371 200.869 77.9786 200.782 77.9786C200.709 77.9786 200.636 77.8764 200.636 77.7593C200.636 77.6423 200.578 77.423 200.504 77.2771C200.066 76.4586 199.322 74.7349 199.322 74.5445C199.322 74.4275 199.264 74.3253 199.176 74.3253C199.103 74.3253 199.031 74.1934 199.031 74.0475C199.031 73.8867 198.972 73.7112 198.885 73.6675C198.812 73.6238 198.739 73.4483 198.739 73.2875C198.739 73.1416 198.681 73.0097 198.593 73.0097C198.52 73.0097 198.448 72.9075 198.448 72.7905C198.448 72.5861 198.126 71.826 197.265 69.9994C197.032 69.5024 196.842 68.9912 196.842 68.8594C196.842 68.7276 196.784 68.6254 196.696 68.6254C196.623 68.6254 196.551 68.4935 196.551 68.3328C196.551 68.172 196.492 68.0402 196.405 68.0402C196.332 68.0402 196.259 67.9084 196.259 67.7624C196.259 67.6017 196.201 67.4261 196.113 67.3824C196.04 67.3387 195.968 67.1632 195.968 67.0024C195.968 66.8565 195.909 66.7247 195.851 66.7247C195.792 66.7247 195.617 66.3595 195.456 65.921C195.311 65.4824 195.135 65.1173 195.062 65.1173C195.004 65.1173 194.945 64.9854 194.945 64.8247C194.945 64.664 194.887 64.5321 194.799 64.5321C194.726 64.5321 194.654 64.4003 194.654 64.2544C194.654 64.0936 194.595 63.9181 194.508 63.8744C194.435 63.8306 194.362 63.6551 194.362 63.4943C194.362 63.3484 194.304 63.2166 194.216 63.2166C194.143 63.2166 194.071 63.1292 194.071 63.0121C194.071 62.9099 193.837 62.3107 193.56 61.6973C193.283 61.0692 193.05 60.4699 193.05 60.3529C193.05 60.2506 192.991 60.1484 192.904 60.1484C192.831 60.1484 192.758 60.0166 192.758 59.8559C192.758 59.6951 192.7 59.5633 192.612 59.5633C192.539 59.5633 192.467 59.4025 192.467 59.1981C192.467 58.9936 192.408 58.8329 192.321 58.8329C192.248 58.8329 192.175 58.7011 192.175 58.5403C192.175 58.3796 192.117 58.2477 192.029 58.2477C191.956 58.2477 191.884 58.1455 191.884 58.0285C191.884 57.7655 191.417 56.7278 191.271 56.67C191.198 56.6411 191.154 56.4944 191.154 56.3485C191.154 56.2025 191.096 56.027 191.008 55.9833C190.935 55.9396 190.863 55.764 190.863 55.6033C190.863 55.4574 190.804 55.3255 190.717 55.3255C190.644 55.3255 190.571 55.2381 190.571 55.1211C190.571 55.004 190.44 54.6685 190.294 54.347C190.133 54.0403 189.914 53.5581 189.797 53.2803C189.287 52.0966 188.936 51.2929 188.805 51.0596C188.732 50.9136 188.674 50.6944 188.674 50.5774C188.674 50.4603 188.615 50.3581 188.528 50.3581C188.455 50.3581 188.382 50.2262 188.382 50.0655C188.382 49.9048 188.324 49.7729 188.236 49.7729C188.163 49.7729 188.091 49.6707 188.091 49.5537C188.091 49.4367 188.032 49.2174 187.974 49.0715C187.9 48.9396 187.667 48.4574 187.463 48.0196C187.244 47.5811 187.069 47.1285 187.069 47.0263C187.069 46.9388 187.01 46.8507 186.923 46.8507C186.85 46.8507 186.777 46.7485 186.777 46.6315C186.777 46.5144 186.544 45.9011 186.252 45.287C185.975 44.673 185.595 43.8255 185.435 43.4315C185.259 43.0226 185.07 42.6278 184.997 42.5544C184.938 42.467 184.88 42.2915 184.88 42.1455C184.88 41.9996 184.821 41.8826 184.734 41.8826C184.661 41.8826 184.588 41.7804 184.588 41.6633C184.588 41.5463 184.53 41.327 184.457 41.1811C184.383 41.0493 184.223 40.6841 184.092 40.3922C183.96 40.0996 183.595 39.2818 183.274 38.5952C182.953 37.8937 182.691 37.2366 182.691 37.1196C182.691 37.0026 182.632 36.9152 182.545 36.9152C182.472 36.9152 182.399 36.7544 182.399 36.55C182.399 36.3455 182.355 36.1848 182.282 36.1848C182.224 36.1848 182.093 35.9655 181.99 35.7025C181.873 35.4544 181.742 35.1033 181.669 34.9426C181.61 34.7818 181.377 34.2848 181.173 33.8322C180.968 33.3789 180.793 32.9411 180.793 32.8529C180.793 32.7507 180.735 32.6774 180.647 32.6774C180.574 32.6774 180.501 32.5167 180.501 32.327C180.501 32.1226 180.443 31.9181 180.356 31.8737C180.282 31.83 180.21 31.6545 180.21 31.5085C180.21 31.3626 180.152 31.2159 180.093 31.187C180.035 31.1581 179.801 30.7196 179.583 30.1937C179.349 29.6677 179.116 29.127 179.028 28.9952C178.955 28.8492 178.896 28.63 178.896 28.513C178.896 28.3959 178.838 28.2937 178.75 28.2937C178.677 28.2937 178.605 28.1619 178.605 28.0011C178.605 27.8404 178.546 27.7085 178.459 27.7085C178.386 27.7085 178.313 27.5767 178.313 27.416C178.313 27.2552 178.255 27.1234 178.167 27.1234C178.094 27.1234 178.022 26.9627 178.022 26.7582C178.022 26.5537 177.963 26.393 177.876 26.393C177.803 26.393 177.73 26.2612 177.73 26.1005C177.73 25.9397 177.672 25.8079 177.584 25.8079C177.511 25.8079 177.439 25.6908 177.439 25.5449C177.439 25.4131 177.336 25.1064 177.22 24.873C177.103 24.6538 177.001 24.3323 177.001 24.1864C177.001 24.0256 176.942 23.9086 176.855 23.9086C176.782 23.9086 176.709 23.8064 176.709 23.6894C176.709 23.5723 176.651 23.4701 176.563 23.4701C176.49 23.4701 176.418 23.3827 176.418 23.2805C176.418 23.1782 176.286 22.813 176.125 22.4767C175.965 22.1553 175.833 21.7753 175.833 21.6441C175.833 21.5271 175.789 21.4249 175.731 21.4249C175.658 21.4249 175.497 21.1182 175.352 20.7234C175.206 20.3434 174.957 19.7886 174.797 19.4812C174.651 19.1597 174.519 18.8234 174.519 18.7071C174.519 18.5908 174.461 18.5027 174.373 18.5027C174.3 18.5027 174.228 18.3708 174.228 18.2101C174.228 18.0493 174.169 17.9175 174.082 17.9175C174.009 17.9175 173.936 17.8005 173.936 17.6545C173.936 17.4205 173.207 15.7405 172.769 14.9657C172.681 14.8197 172.623 14.5709 172.623 14.4101C172.623 14.1761 172.521 14.1176 172.185 14.1176H171.747V52.3927H171.751Z" fill="black"/>
<path d="M226.842 28.7505C226.87 36.8165 226.929 44.3416 226.987 45.4809L227.104 47.5409L227.586 47.5994C227.848 47.6283 232.854 47.6283 238.721 47.5994C247.652 47.5409 249.389 47.4972 249.389 47.3365C249.389 47.1609 248.382 47.132 243.347 47.132C240.019 47.132 237.203 47.0883 237.072 47.0446C236.868 46.9572 236.838 45.8905 236.838 36.4075C236.853 26.0039 236.925 23.9876 237.305 23.7246C237.407 23.6513 237.889 23.6076 238.37 23.6224C238.852 23.6372 246.557 23.6372 255.489 23.6224L271.717 23.6076V18.8587V14.1098H249.257H226.798L226.842 28.7505Z" fill="black"/>
<path d="M282.706 30.7676C282.735 39.9439 282.823 47.4831 282.882 47.5417C282.984 47.6439 304.524 47.7024 305.108 47.6002C305.283 47.5713 305.429 47.4394 305.429 47.3372C305.429 47.1617 304.407 47.1327 299.241 47.1327C295.52 47.1327 293.01 47.0743 292.951 47.0009C292.908 46.9135 292.878 41.7113 292.878 35.4283C292.878 24.7469 292.893 23.9876 293.141 23.812C293.345 23.6661 296.745 23.6224 310.464 23.6076C323.788 23.6076 327.553 23.5639 327.64 23.418C327.698 23.3305 327.757 21.1824 327.757 18.6691V14.1099H305.195H282.634L282.706 30.7676Z" fill="black"/>
<path d="M338.469 33.0616C338.512 43.4942 338.6 58.5883 338.644 66.5957L338.731 81.1786L345.532 81.1638C349.283 81.1638 352.639 81.1053 353.004 81.0468C353.559 80.9445 353.442 80.9149 352.245 80.9008C351.472 80.9008 350.785 80.8134 350.742 80.7401C350.698 80.6527 350.26 80.5942 349.778 80.5942C348.917 80.5942 348.275 80.3016 348.626 80.083C348.728 80.0245 348.772 70.629 348.772 51.9697C348.772 28.0794 348.8 23.915 348.976 23.769C349.122 23.6372 350.727 23.6083 355.149 23.6668C361.556 23.7401 363.657 23.8423 363.657 24.0616C363.657 24.1349 363.803 24.1934 363.993 24.1934C364.635 24.1934 367.423 25.3623 367.568 25.6838C367.597 25.7571 367.714 25.8008 367.831 25.8008C367.948 25.8008 368.035 25.8594 368.035 25.9468C368.035 26.0201 368.137 26.0927 368.254 26.0927C368.371 26.0927 368.473 26.1512 368.473 26.2387C368.473 26.312 368.546 26.3846 368.634 26.3846C368.809 26.3846 370.808 28.3283 370.808 28.489C370.808 28.5475 370.925 28.7231 371.071 28.869C371.421 29.249 372.413 31.046 372.413 31.2949C372.413 31.4119 372.487 31.4993 372.559 31.4993C372.646 31.4993 372.705 31.6601 372.705 31.8497C372.705 32.0542 372.778 32.2586 372.851 32.3023C372.938 32.3461 372.996 32.6238 372.996 32.9016C372.996 33.1794 373.055 33.3986 373.128 33.3986C373.186 33.3986 373.303 34.0127 373.376 34.7431C373.536 36.3505 373.522 69.2126 373.361 70.323C373.303 70.7467 373.201 71.0971 373.127 71.0971C373.054 71.0971 372.996 71.3163 372.996 71.5941C372.996 71.8719 372.937 72.1497 372.85 72.1934C372.777 72.2371 372.704 72.4415 372.704 72.6319C372.704 72.8222 372.66 72.9971 372.602 73.0267C372.529 73.0415 372.296 73.4793 372.062 73.9763C371.828 74.4874 371.58 74.897 371.507 74.897C371.449 74.897 371.39 74.9845 371.39 75.0726C371.375 75.423 370.004 76.9578 369.041 77.7029C368.793 77.8785 368.501 78.1266 368.398 78.2141C368.282 78.3163 368.136 78.4037 368.048 78.4037C367.961 78.4037 367.888 78.4622 367.888 78.5497C367.888 78.623 367.801 78.6956 367.699 78.6956C367.596 78.6956 367.377 78.8126 367.217 78.9585C367.071 79.1045 366.56 79.4111 366.093 79.6304C365.13 80.1126 364.94 80.3023 365.451 80.3023C365.801 80.3023 367.392 79.5282 368.209 78.9579C368.413 78.8119 368.662 78.6949 368.749 78.6949C368.836 78.6949 368.91 78.6364 368.91 78.5779C368.91 78.5193 369.085 78.3586 369.318 78.2275C369.887 77.8771 371.099 76.6638 371.099 76.4304C371.099 76.3282 371.157 76.2112 371.216 76.1823C371.391 76.1237 372.339 74.7067 372.573 74.166C372.69 73.9319 372.821 73.7274 372.879 73.7274C372.953 73.7274 372.996 73.5667 372.996 73.3623C372.996 73.1578 373.055 72.9971 373.113 72.9971C373.215 72.9971 373.361 72.5437 373.727 71.0978C373.8 70.82 373.902 70.2208 373.946 69.7682C374.004 69.3156 374.091 68.8622 374.165 68.76C374.252 68.6141 375.551 68.526 376.616 68.5993C376.82 68.6141 376.85 69.2859 376.645 69.4178C376.572 69.4615 376.499 69.783 376.499 70.1045C376.499 70.4259 376.426 70.9667 376.339 71.303C375.842 73.217 375.668 73.7282 375.302 74.4592C375.083 74.8978 374.894 75.3362 374.894 75.4385C374.894 75.5407 374.836 75.6281 374.748 75.6281C374.675 75.6281 374.602 75.7304 374.602 75.8474C374.602 75.9644 374.544 76.0666 374.457 76.0666C374.383 76.0666 374.311 76.154 374.311 76.2563C374.311 76.914 370.677 80.8881 370.078 80.8881C369.991 80.8881 369.933 80.9466 369.933 81.0341C369.933 81.1074 369.845 81.18 369.729 81.18C369.612 81.18 369.495 81.2385 369.466 81.297C369.407 81.4726 367.467 82.4955 367.218 82.4955C367.101 82.4955 367.014 82.5541 367.014 82.6415C367.014 82.7148 366.854 82.7874 366.664 82.7874C366.46 82.7874 366.256 82.8459 366.212 82.9333C366.168 83.0066 366.008 83.0793 365.862 83.0793C365.73 83.0793 365.468 83.2111 365.293 83.3719C365.059 83.6059 364.783 83.6644 364.067 83.6644C363.236 83.6792 363.177 83.6933 363.484 83.8689C363.776 84.0148 363.965 84.0148 364.578 83.8541C364.986 83.7518 365.468 83.6644 365.658 83.6644C365.833 83.6644 366.023 83.5911 366.066 83.5185C366.11 83.4452 366.285 83.3725 366.446 83.3725C366.592 83.3725 366.723 83.2992 366.723 83.2266C366.723 83.1392 366.855 83.0807 367.001 83.0807C367.161 83.0807 367.337 83.0074 367.38 82.9347C367.424 82.8473 367.628 82.7888 367.833 82.7888C368.022 82.7888 368.183 82.7155 368.183 82.6429C368.183 82.5555 368.315 82.4969 368.475 82.4969C368.651 82.4969 368.898 82.3799 369.059 82.234C369.205 82.1021 369.584 81.854 369.89 81.6932C370.197 81.5325 370.547 81.2843 370.678 81.1525C370.81 81.0066 370.985 80.8895 371.087 80.8895C371.174 80.8895 371.247 80.8162 371.247 80.7436C371.247 80.6562 371.321 80.5977 371.423 80.5977C371.583 80.5977 373.378 78.771 373.977 77.9969C374.152 77.7629 374.385 77.3977 374.473 77.1784C374.575 76.974 374.707 76.7984 374.779 76.7984C374.838 76.7984 374.896 76.6666 374.896 76.5058C374.896 76.3451 374.969 76.2133 375.042 76.2133C375.129 76.2133 375.188 76.1111 375.188 75.994C375.188 75.877 375.231 75.7748 375.304 75.7748C375.407 75.7748 375.771 75.0881 375.771 74.8689C375.771 74.8103 375.932 74.4155 376.107 73.9918C376.618 72.8666 376.793 72.2385 376.793 71.6392C376.793 71.3467 376.866 71.0985 376.939 71.0985C377.026 71.0985 377.085 70.7037 377.085 70.2074C377.085 69.36 377.26 68.7903 377.566 68.5852C377.653 68.5266 378.033 68.5267 378.398 68.5704C378.792 68.6141 379.215 68.5852 379.39 68.483C379.667 68.337 379.711 68.3659 379.798 68.6874C379.842 68.8919 379.842 69.3015 379.798 69.6081C379.755 69.9007 379.667 70.5874 379.623 71.1422C379.564 71.6829 379.462 72.1652 379.404 72.2089C379.331 72.2526 379.272 72.5155 379.272 72.7933C379.272 73.0711 379.214 73.2904 379.126 73.2904C379.053 73.2904 378.981 73.48 378.981 73.7288C378.981 73.9629 378.922 74.1674 378.835 74.1674C378.762 74.1674 378.689 74.2992 378.689 74.4599C378.689 74.6207 378.631 74.8688 378.558 75.0155C378.484 75.1473 378.178 75.7896 377.872 76.4325C377.58 77.0755 377.288 77.631 377.244 77.6747C377.201 77.7185 377.055 77.9377 376.938 78.1859C376.821 78.4199 376.69 78.6533 376.646 78.697C376.602 78.7407 376.383 79.0185 376.164 79.3252C375.683 79.9533 374.413 81.3563 373.888 81.8237C373.698 81.9844 373.319 82.3496 373.056 82.5978C372.516 83.1237 370.634 84.3948 370.385 84.3948C370.298 84.3948 370.225 84.4533 370.225 84.5407C370.225 84.6141 370.123 84.6867 370.006 84.6867C369.889 84.6867 369.787 84.7452 369.787 84.8326C369.787 84.9059 369.655 84.9785 369.495 84.9785C369.334 84.9785 369.203 85.0371 369.203 85.1245C369.203 85.1978 369.115 85.2704 369.013 85.2704C368.911 85.2704 368.473 85.4311 368.065 85.6356C367.641 85.84 366.999 86.0889 366.605 86.1763C366.225 86.2786 365.7 86.4689 365.438 86.6149C365.131 86.7904 364.65 86.8778 364.095 86.8778C363.613 86.8778 363.219 86.9363 363.219 86.9949C363.219 87.1267 364.46 87.0971 365.597 86.9511C365.977 86.8926 366.283 86.7904 366.283 86.7171C366.283 86.6437 366.444 86.5852 366.633 86.5852C366.837 86.5852 367.042 86.5119 367.085 86.4393C367.129 86.3519 367.333 86.2934 367.523 86.2934C367.713 86.2934 367.917 86.2201 367.961 86.1474C368.005 86.0741 368.151 86.0015 368.267 86.0015C368.545 86.0015 370.719 84.9785 370.778 84.8178C370.807 84.7445 370.953 84.686 371.099 84.686C371.244 84.686 371.391 84.6275 371.42 84.5689C371.449 84.4956 371.858 84.1889 372.339 83.8675C372.821 83.5608 373.42 83.1075 373.667 82.8593C373.915 82.6253 374.251 82.3186 374.397 82.1874C374.557 82.0556 375.068 81.5008 375.55 80.96C376.031 80.4193 376.513 79.8786 376.615 79.7764C376.702 79.6741 376.79 79.5282 376.79 79.4401C376.79 79.3519 376.863 79.2793 376.936 79.2793C377.023 79.2793 377.082 79.1919 377.082 79.0897C377.082 78.9874 377.199 78.7682 377.344 78.6075C377.49 78.4467 377.739 78.0519 377.884 77.7015C378.03 77.3652 378.206 77.0882 378.279 77.0882C378.337 77.0882 378.396 76.9563 378.396 76.7956C378.396 76.6349 378.469 76.503 378.541 76.503C378.629 76.503 378.687 76.3423 378.687 76.1379C378.687 75.9334 378.76 75.7727 378.833 75.7727C378.92 75.7727 378.979 75.6408 378.979 75.4801C378.979 75.3193 379.052 75.1875 379.124 75.1875C379.212 75.1875 379.27 74.9979 379.27 74.7638C379.27 74.5156 379.329 74.2964 379.402 74.2527C379.475 74.209 379.562 73.9897 379.606 73.7705C379.65 73.5364 379.781 72.9667 379.912 72.4845C380.044 72.0023 380.19 71.009 380.233 70.2638C380.292 69.5334 380.379 68.8467 380.438 68.7586C380.525 68.6127 381.839 68.5245 382.889 68.5979C383.05 68.6127 383.065 68.7875 383.006 69.372C382.948 69.7957 382.875 70.5705 382.831 71.0964C382.787 71.6223 382.685 72.1045 382.612 72.192C382.539 72.2653 382.48 72.4845 382.48 72.6742C382.48 73.2297 382.028 74.7342 381.313 76.5757C381.137 77.0431 380.525 78.329 380.437 78.4023C380.305 78.5341 379.693 79.6445 379.605 79.8927C379.562 80.0386 379.474 80.1556 379.401 80.1556C379.328 80.1556 379.269 80.2578 379.269 80.3749C379.269 80.4919 379.211 80.5942 379.153 80.5942C379.079 80.5942 378.934 80.7697 378.817 80.9889C378.7 81.223 378.379 81.6467 378.101 81.9534C377.824 82.2601 377.532 82.6252 377.459 82.7571C377.313 83.0052 376.204 84.0578 375.504 84.6127C375.3 84.7734 375.007 85.0364 374.833 85.1971C374.657 85.3578 374.264 85.6941 373.943 85.9275C373.622 86.1756 373.329 86.3949 373.286 86.4386C373.242 86.4823 373.023 86.6141 372.775 86.7312C372.541 86.8482 372.308 86.9941 372.265 87.0379C372.119 87.2275 368.835 88.7764 368.587 88.7764C368.441 88.7764 368.324 88.8349 368.324 88.9223C368.324 88.9956 368.164 89.0682 367.96 89.0682C367.756 89.0682 367.595 89.1268 367.595 89.2142C367.595 89.2875 367.449 89.3601 367.274 89.3749C367.085 89.3749 366.092 89.609 365.041 89.8719C363.348 90.3252 363.246 90.369 364.019 90.3253C365.26 90.2378 366.456 90.0327 366.792 89.843C366.953 89.7697 367.493 89.609 368.003 89.4926C368.5 89.3904 368.908 89.2445 368.908 89.186C368.908 89.1275 369.04 89.069 369.2 89.069C369.361 89.069 369.609 89.0104 369.755 88.9371C369.887 88.8497 370.528 88.5423 371.171 88.2504C371.813 87.9438 372.368 87.666 372.411 87.6223C372.455 87.5786 372.659 87.4468 372.893 87.3297C373.112 87.2127 373.287 87.0668 373.287 86.9934C373.287 86.9349 373.389 86.8764 373.506 86.8764C373.623 86.8764 373.856 86.7594 374.031 86.6282C374.192 86.4823 374.469 86.2482 374.644 86.1171C375.724 85.2401 376.045 84.963 376.848 84.1593C378.147 82.8586 379.271 81.5586 379.271 81.383C379.271 81.3245 379.403 81.1786 379.548 81.0468C379.709 80.9008 379.943 80.5208 380.074 80.1845C380.219 79.8483 380.38 79.5705 380.438 79.5705C380.497 79.5705 380.584 79.4535 380.628 79.3075C380.671 79.1757 380.803 78.8986 380.92 78.6935C381.314 78.0357 382.058 76.312 382.146 75.8883C382.189 75.6542 382.292 75.4357 382.35 75.3912C382.423 75.3475 382.482 75.1572 382.482 74.9675C382.482 74.7779 382.555 74.5727 382.627 74.529C382.715 74.4853 382.773 74.2223 382.773 73.9446C382.773 73.6668 382.846 73.4038 382.919 73.3601C383.006 73.3164 383.065 73.0535 383.065 72.7757C383.065 72.4979 383.123 72.2498 383.182 72.2061C383.503 72.0164 383.576 68.4068 383.561 52.3927C383.561 36.2031 383.488 32.0824 383.196 32.0824C383.123 32.0824 383.065 31.7898 383.065 31.4246C383.065 31.0594 383.006 30.7669 382.919 30.7669C382.846 30.7669 382.773 30.6209 382.773 30.4454C382.773 30.1528 382.598 29.4809 382.335 28.7943C382.262 28.6335 382.101 28.2098 381.97 27.8446C381.591 26.778 381.402 26.3832 381.285 26.3832C381.211 26.3832 381.168 26.2513 381.168 26.0906C381.168 25.9299 381.109 25.798 381.022 25.798C380.949 25.798 380.876 25.6662 380.876 25.5054C380.876 25.3447 380.818 25.2129 380.759 25.2129C380.686 25.2129 380.555 24.9788 380.438 24.7017C380.321 24.4247 380.19 24.1906 380.132 24.1906C380.074 24.1906 379.986 24.0736 379.943 23.9276C379.899 23.7958 379.665 23.4454 379.417 23.1677C379.184 22.8899 378.979 22.598 378.979 22.5395C378.979 22.481 378.76 22.2032 378.512 21.9255C378.25 21.6477 377.812 21.1803 377.564 20.9025C377.301 20.6247 377.082 20.347 377.082 20.2892C377.082 20.2313 376.79 19.9677 376.455 19.7047C376.119 19.4565 375.594 19.0032 375.288 18.7254C374.995 18.4329 374.689 18.1995 374.631 18.1995C374.557 18.1995 374.368 18.0677 374.193 17.907C373.843 17.5707 372.748 16.8692 371.975 16.4899C371.697 16.344 371.449 16.1832 371.42 16.1099C371.391 16.0514 371.244 16.0077 371.084 16.0077C370.938 16.0077 370.807 15.9344 370.807 15.8618C370.807 15.7743 370.675 15.7158 370.514 15.7158C370.354 15.7158 370.222 15.6425 370.222 15.5699C370.222 15.4825 370.105 15.4239 369.959 15.4239C369.814 15.4239 369.638 15.3654 369.551 15.3069C369.478 15.2336 369.026 15.0588 368.544 14.9121C368.063 14.7803 367.522 14.5906 367.333 14.5321C367.144 14.4588 366.837 14.4003 366.647 14.4003C366.458 14.4003 366.253 14.327 366.209 14.2543C366.151 14.1521 361.335 14.1084 352.258 14.1084H338.379L338.469 33.0616Z" fill="black"/>
<path d="M226.944 50.6394C227.134 50.932 227.294 50.932 238.255 50.932C249.288 50.932 249.39 50.932 249.39 50.6394C249.39 50.3469 249.288 50.3469 238.079 50.3469C226.798 50.3469 226.769 50.3469 226.944 50.6394Z" fill="black"/>
<path d="M282.838 50.5957C282.882 50.8439 283.553 50.8587 293.958 50.9024C304.933 50.9313 305.429 50.9172 305.429 50.4787C305.429 50.4054 300.511 50.3469 294.105 50.3469C283.407 50.3469 282.794 50.3617 282.838 50.5957Z" fill="black"/>
<path d="M227.06 53.6349C227.06 53.8246 228.009 53.8542 234.693 53.8542C238.881 53.8542 243.828 53.869 245.668 53.869C247.521 53.869 249.112 53.869 249.214 53.869C249.301 53.8542 249.389 53.752 249.389 53.6349C249.389 53.4453 248.046 53.4157 238.225 53.4157C228.403 53.4157 227.06 53.4446 227.06 53.6349Z" fill="black"/>
<path d="M282.881 53.5764C282.823 53.6639 282.808 53.752 282.838 53.7809C282.881 53.8246 304.787 53.9268 305.268 53.8683C305.429 53.8535 305.429 53.8098 305.283 53.6342C305.123 53.4446 303.693 53.415 294.031 53.415C286.355 53.4157 282.94 53.4594 282.881 53.5764Z" fill="black"/>
<path d="M226.958 56.8491C226.813 57.0098 226.783 60.6921 226.783 73.5358C226.798 82.595 226.856 90.1639 226.929 90.3394L227.046 90.6757H249.388C268.9 90.6757 271.717 90.6468 271.717 90.4564C271.717 90.2809 269.513 90.2372 254.526 90.2083C238.298 90.1646 237.32 90.1498 237.072 89.9016C236.853 89.6972 236.838 89.5653 236.97 89.1853C237.057 88.9372 237.13 88.4402 237.13 88.1039V87.4609H254.423H271.717V87.1394V86.8327L268.769 86.935C265.499 87.052 247.505 87.0668 241.245 86.9639C237.976 86.9054 237.231 86.8616 237.057 86.6713C236.867 86.4817 236.867 86.3061 237.013 85.4291L237.189 84.3913H254.219C263.588 84.3913 271.352 84.3476 271.484 84.3039C271.615 84.2602 271.718 84.1284 271.718 84.0113C271.718 83.8358 269.105 83.8069 254.424 83.8069H237.131V82.4921V81.1773H254.424C271.615 81.1773 271.718 81.1772 271.718 80.8847C271.718 80.5921 271.615 80.5921 254.424 80.5921H237.131L237.116 77.6988C237.101 76.121 237.087 74.6158 237.072 74.3818C237.043 74.1336 236.985 70.2758 236.912 65.8047C236.81 58.484 236.825 57.6514 237.029 57.4469C237.233 57.2425 237.992 57.2129 243.319 57.2129C249.288 57.2129 249.39 57.2129 249.39 56.9203C249.39 56.6277 249.288 56.6277 238.269 56.6277C228.914 56.6446 227.105 56.6743 226.958 56.8491Z" fill="black"/>
<path d="M282.765 56.835C282.648 57.1276 282.648 84.1446 282.75 87.6512L282.852 90.6757L295.563 90.6172C302.553 90.5735 309.193 90.4854 310.317 90.4128C311.893 90.3253 310.244 90.2809 303.166 90.2372C298.117 90.2083 293.738 90.1787 293.461 90.1787L292.951 90.1639L292.907 88.8053L292.863 87.4461L293.316 87.3002C293.885 87.0957 293.885 86.8765 293.316 86.8765H292.878V85.6342V84.392H293.403C293.681 84.392 294.016 84.2898 294.133 84.1728C294.322 83.9831 294.308 83.9535 294.016 83.895C293.826 83.8513 293.519 83.7928 293.315 83.778C292.965 83.7343 292.951 83.6906 292.907 82.5795C292.878 81.9365 292.922 81.3669 292.98 81.3084C293.053 81.2351 296.089 81.1766 299.737 81.1625C306.567 81.1476 307.384 81.1187 307.282 80.8262C307.238 80.7091 305.574 80.6654 301.182 80.6943C297.854 80.7091 294.95 80.7232 294.702 80.738C294.469 80.738 293.958 80.7091 293.579 80.6506L292.878 80.5632L292.849 69.1514C292.82 62.8684 292.834 57.6077 292.864 57.4766C292.908 57.2284 293.36 57.2136 299.139 57.184C304.553 57.1403 305.356 57.1107 305.356 56.921C305.356 56.7314 303.984 56.7018 294.104 56.6581C284.647 56.6306 282.823 56.6594 282.765 56.835Z" fill="black"/>
<path d="M363.41 80.5497C363.541 80.5786 363.774 80.5786 363.92 80.5497C364.052 80.506 363.935 80.4764 363.658 80.4764C363.38 80.4764 363.264 80.506 363.41 80.5497Z" fill="black"/>
<path d="M296.527 83.9394L295.14 84.0268L296.527 84.1439C297.286 84.2024 300.175 84.1876 302.948 84.129L307.982 83.9972L304.552 83.9824C302.67 83.9676 300.408 83.9239 299.518 83.895C298.643 83.8668 297.286 83.8809 296.527 83.9394Z" fill="black"/>
<path d="M338.703 83.9838C338.703 84.3342 338.892 84.349 341.256 84.1593C343.241 84.0134 343.329 83.9986 342.19 83.9838C341.504 83.969 340.439 83.9105 339.826 83.8668C338.863 83.7786 338.703 83.7934 338.703 83.9838Z" fill="black"/>
<path d="M347.386 83.9394L346.51 84.0417L347.386 84.1735C348.436 84.3343 353.136 84.3343 353.953 84.1735C354.493 84.0713 354.508 84.0417 354.172 83.9542C353.749 83.8231 348.655 83.8231 347.386 83.9394Z" fill="black"/>
<path d="M365.079 80.5117C365.196 80.6287 365.357 80.731 365.444 80.731C365.531 80.731 365.604 80.6287 365.604 80.5117C365.604 80.3798 365.459 80.2924 365.225 80.2924C364.89 80.2924 364.875 80.322 365.079 80.5117Z" fill="black"/>
<path d="M339.301 90.4712C339.301 90.6319 339.345 90.6757 339.388 90.5586C339.432 90.4564 339.417 90.3246 339.374 90.2809C339.33 90.2231 339.286 90.3105 339.301 90.4712Z" fill="black"/>
<path d="M351.082 104.059C350.877 104.132 350.411 104.191 350.031 104.205C349.651 104.219 349.302 104.278 349.258 104.365C349.214 104.439 349.01 104.511 348.806 104.511C348.281 104.511 346.807 105.3 346.165 105.928C345.464 106.615 344.808 107.623 344.808 108.003C344.808 108.164 344.735 108.31 344.632 108.339C344.385 108.427 344.399 111.627 344.661 112.27C345.23 113.687 346.763 115.324 347.507 115.324C347.624 115.324 347.726 115.382 347.726 115.47C347.726 115.543 347.858 115.616 348.019 115.616C348.179 115.616 348.311 115.674 348.311 115.762C348.311 115.835 348.442 115.908 348.603 115.908C348.764 115.908 348.895 115.966 348.895 116.054C348.895 116.127 349.056 116.199 349.245 116.199C349.449 116.199 349.654 116.258 349.697 116.345C349.741 116.419 349.916 116.491 350.062 116.491C350.208 116.491 350.835 116.725 351.463 117.003C352.076 117.28 352.674 117.514 352.776 117.514C352.893 117.514 352.981 117.572 352.981 117.66C352.981 117.733 353.054 117.805 353.126 117.805C353.374 117.805 354.002 118.492 354.002 118.755C354.002 118.872 354.075 118.974 354.148 118.974C354.235 118.974 354.294 119.34 354.294 119.778C354.294 120.217 354.235 120.582 354.148 120.582C354.075 120.582 354.002 120.669 354.002 120.771C354.002 121.02 353.462 121.502 352.922 121.736C352.397 121.955 348.923 121.97 348.092 121.751C347.771 121.663 347.319 121.531 347.07 121.473C346.836 121.414 346.428 121.254 346.165 121.123C345.465 120.743 345.187 120.801 344.983 121.357C344.881 121.62 344.808 121.985 344.808 122.16C344.808 122.336 344.749 122.482 344.662 122.482C344.589 122.482 344.516 122.614 344.516 122.76C344.516 122.92 344.458 123.096 344.37 123.14C344.297 123.183 344.225 123.388 344.225 123.592C344.225 123.782 344.166 123.943 344.079 123.943C344.006 123.943 343.977 124.045 344.021 124.162C344.079 124.279 344.196 124.381 344.313 124.381C344.43 124.381 344.517 124.44 344.517 124.527C344.517 124.6 344.619 124.673 344.736 124.673C344.868 124.673 345.115 124.76 345.291 124.877C345.466 124.994 346.137 125.199 346.779 125.345C348.268 125.666 353.054 125.798 353.93 125.534C355.156 125.169 356.484 124.643 356.484 124.511C356.484 124.438 356.558 124.38 356.645 124.38C356.907 124.38 358.207 122.963 358.542 122.32C359.14 121.151 359.184 118.185 358.615 117.06C358.483 116.797 358.381 116.534 358.381 116.475C358.381 116.095 356.513 114.298 356.119 114.298C356.002 114.298 355.9 114.225 355.9 114.152C355.9 114.065 355.783 114.006 355.637 114.006C355.491 114.006 355.316 113.948 355.243 113.889C355.156 113.816 354.644 113.583 354.075 113.363C352.616 112.779 352.353 112.677 352.076 112.531C351.931 112.457 351.712 112.399 351.595 112.399C351.478 112.399 351.376 112.326 351.376 112.253C351.376 112.165 351.274 112.107 351.157 112.107C350.763 112.107 350.004 111.64 349.523 111.114C349.114 110.66 349.041 110.485 349.041 109.843C349.041 108.98 349.318 108.586 350.165 108.235C350.778 107.972 354.368 107.914 354.513 108.162C354.557 108.235 354.806 108.308 355.039 108.308C355.273 108.308 355.666 108.44 355.885 108.614C356.556 109.111 356.805 108.951 357.198 107.796C357.388 107.226 357.593 106.744 357.665 106.729C357.738 106.7 357.797 106.525 357.797 106.349C357.797 106.174 357.884 105.94 357.986 105.838C358.22 105.59 357.738 105.195 356.848 104.932C356.483 104.83 356.191 104.684 356.191 104.626C356.191 104.567 355.972 104.508 355.709 104.508C355.446 104.508 355.169 104.45 355.096 104.377C354.832 104.132 351.622 103.884 351.082 104.059Z" fill="#027398"/>
<path d="M303.245 104.028C302.646 104.057 302.092 104.145 302.019 104.218C301.932 104.305 301.727 104.364 301.552 104.364C300.881 104.364 299.071 105.547 298.327 106.468C297.962 106.906 297.554 107.739 297.554 108.017C297.554 108.178 297.496 108.309 297.408 108.309C297.321 108.309 297.263 109.011 297.263 110.136C297.263 111.261 297.321 111.963 297.408 111.963C297.496 111.963 297.554 112.065 297.554 112.182C297.554 112.43 298.065 113.366 298.372 113.672C298.474 113.789 298.576 113.935 298.576 113.994C298.576 114.052 298.838 114.257 299.159 114.446C299.481 114.651 299.743 114.855 299.743 114.9C299.743 114.943 300.035 115.104 300.4 115.265C300.765 115.411 301.057 115.586 301.057 115.645C301.057 115.703 301.189 115.762 301.349 115.762C301.51 115.762 301.86 115.894 302.152 116.055C302.444 116.215 302.75 116.347 302.853 116.347C303.13 116.347 305.071 117.121 305.114 117.253C305.143 117.312 305.29 117.37 305.45 117.37C305.596 117.37 305.728 117.429 305.728 117.516C305.728 117.589 305.844 117.662 305.99 117.662C306.136 117.662 306.34 117.808 306.457 117.969C306.574 118.144 306.749 118.363 306.851 118.466C306.939 118.553 307.085 118.889 307.172 119.196C307.289 119.663 307.275 119.839 307.012 120.35C306.384 121.578 305.801 121.782 303.1 121.723C301.349 121.665 300.809 121.606 299.963 121.315C299.408 121.125 298.926 120.906 298.897 120.847C298.869 120.789 298.62 120.73 298.343 120.73C297.905 120.73 297.846 120.774 297.846 121.095C297.846 121.3 297.788 121.46 297.7 121.46C297.627 121.46 297.555 121.65 297.555 121.899C297.555 122.133 297.496 122.338 297.423 122.338C297.306 122.338 297.219 122.644 297.029 123.74C296.927 124.266 297.058 124.383 298.065 124.705C300.459 125.509 301.042 125.582 304.005 125.523C306.982 125.465 307.799 125.304 309.214 124.486C309.944 124.062 311.111 122.893 311.126 122.586C311.126 122.455 311.199 122.338 311.272 122.338C311.359 122.338 311.418 122.206 311.418 122.06C311.418 121.9 311.505 121.754 311.607 121.724C311.739 121.666 311.782 121.096 311.782 119.518C311.782 118.012 311.724 117.326 311.607 117.209C311.505 117.106 311.418 116.902 311.418 116.755C311.418 116.434 311.272 116.244 310.396 115.338C309.55 114.476 309.126 114.155 308.878 114.155C308.761 114.155 308.644 114.096 308.615 114.038C308.557 113.892 306.937 113.132 306.674 113.132C306.572 113.132 306.426 113.058 306.382 112.986C306.338 112.898 306.163 112.84 306.002 112.84C305.856 112.84 305.725 112.766 305.725 112.694C305.725 112.606 305.535 112.548 305.287 112.548C305.053 112.548 304.849 112.475 304.849 112.402C304.849 112.315 304.717 112.256 304.557 112.256C304.396 112.256 304.264 112.183 304.264 112.11C304.264 112.023 304.104 111.964 303.9 111.964C303.695 111.964 303.535 111.891 303.535 111.818C303.535 111.731 303.448 111.672 303.331 111.672C303.229 111.672 302.849 111.424 302.513 111.117C301.958 110.62 301.886 110.489 301.871 109.904C301.856 109.042 302.105 108.575 302.805 108.18C303.286 107.917 303.593 107.873 305.256 107.873C306.38 107.873 307.198 107.932 307.255 108.019C307.299 108.092 307.533 108.165 307.752 108.165C307.971 108.165 308.423 108.297 308.744 108.457C309.371 108.764 309.809 108.72 309.809 108.37C309.809 108.253 309.868 108.049 309.941 107.903C310.102 107.566 310.408 106.719 310.496 106.295C310.54 106.12 310.628 105.974 310.7 105.974C310.773 105.974 310.832 105.813 310.832 105.609C310.832 105.346 310.715 105.2 310.437 105.083C310.204 104.995 309.752 104.79 309.401 104.644C309.065 104.498 308.628 104.366 308.453 104.366C308.263 104.366 308.058 104.308 307.986 104.235C307.812 104.072 304.792 103.941 303.245 104.028Z" fill="#027398"/>
<path d="M204 114.461V124.909H210.844H217.674L217.776 124.368C217.937 123.33 217.878 121.11 217.689 121.081C217.587 121.066 215.515 121.052 213.092 121.052C210.669 121.037 208.641 120.978 208.568 120.92C208.509 120.847 208.451 117.033 208.451 112.445V104.087L206.233 104.044L204 104V114.461Z" fill="#027398"/>
<path d="M250 114.448V124.896H257.297H264.594V122.996V121.097H259.661C256.013 121.097 254.685 121.053 254.554 120.921C254.364 120.732 254.291 116.67 254.466 116.216C254.54 116.012 254.948 115.982 257.429 115.968C260.041 115.968 262.624 115.822 262.755 115.675C262.784 115.647 262.843 114.843 262.872 113.893L262.931 112.183H258.859C255.531 112.183 254.758 112.139 254.582 111.978C254.335 111.73 254.29 108.793 254.524 108.179L254.67 107.799H259.252H263.835L263.893 106.075C263.922 105.14 263.922 104.278 263.893 104.176C263.849 104.044 262.317 104 256.917 104H250V114.448Z" fill="#027398"/>
<path d="M304.422 80.9128C304.464 81.1596 305.14 81.1737 315.646 81.223C326.722 81.2512 327.222 81.2371 327.222 80.8C327.222 80.7295 322.258 80.6661 315.794 80.6661C304.992 80.6661 304.38 80.6802 304.422 80.9128Z" fill="black"/>
<path d="M304.133 87.1521C304.176 87.3988 304.852 87.4129 315.357 87.4623C326.433 87.4905 326.933 87.4764 326.933 87.0393C326.933 86.9688 321.969 86.9053 315.505 86.9053C304.697 86.9053 304.084 86.9194 304.133 87.1521Z" fill="black"/>
<path d="M304.302 84.1417C304.345 84.3885 305.02 84.4026 315.526 84.4519C326.602 84.4801 327.102 84.466 327.102 84.0289C327.102 83.9584 322.138 83.895 315.674 83.895C304.887 83.895 304.26 83.9091 304.302 84.1417Z" fill="black"/>
<path d="M304.133 90.2682C304.176 90.5149 304.852 90.529 315.357 90.5784C326.433 90.6066 326.933 90.5925 326.933 90.1554C326.933 90.0849 321.969 90.0214 315.505 90.0214C304.697 90.0214 304.084 90.0355 304.133 90.2682Z" fill="black"/>
<path d="M290.847 83.9866C290.889 84.2334 291.565 84.2475 302.07 84.2968C313.146 84.325 313.646 84.3109 313.646 83.8738C313.646 83.8033 308.682 83.7399 302.218 83.7399C291.417 83.7328 290.804 83.7469 290.847 83.9866Z" fill="black"/>
<path d="M290.847 87.0534C290.889 87.3001 291.565 87.3142 302.07 87.3636C313.146 87.3918 313.646 87.3777 313.646 86.9406C313.646 86.8701 308.682 86.8066 302.218 86.8066C291.417 86.8066 290.804 86.8207 290.847 87.0534Z" fill="black"/>
<path d="M290.706 90.2682C290.748 90.5149 291.424 90.529 301.929 90.5784C313.005 90.6066 313.505 90.5925 313.505 90.1554C313.505 90.0849 308.541 90.0214 302.077 90.0214C291.276 90.0214 290.663 90.0355 290.706 90.2682Z" fill="black"/>
<path d="M340.558 80.652C340.6 80.9269 341.346 80.941 352.859 81.0045C364.998 81.0327 365.554 81.0186 365.554 80.5251C365.554 80.4405 360.111 80.377 353.021 80.377C341.184 80.3629 340.516 80.3911 340.558 80.652Z" fill="black"/>
<path d="M339.065 83.9091C339.107 84.1417 339.854 84.1558 351.324 84.1981C363.421 84.2263 363.977 84.2122 363.977 83.8033C363.977 83.7328 358.548 83.6694 351.486 83.6694C339.678 83.6764 339.009 83.6905 339.065 83.9091Z" fill="black"/>
<path d="M338.629 86.9335C338.671 87.2719 339.473 87.3001 351.894 87.3565C364.984 87.3988 365.568 87.3847 365.568 86.7714C365.568 86.6656 359.703 86.5951 352.056 86.5951C339.297 86.581 338.572 86.6163 338.629 86.9335Z" fill="black"/>
<path d="M338.629 90.3246C338.671 90.6348 339.445 90.663 351.472 90.7053C364.153 90.7335 364.724 90.7194 364.724 90.1766C364.724 90.092 359.048 90.0144 351.634 90.0144C339.269 90.0215 338.572 90.0497 338.629 90.3246Z" fill="black"/>
<path d="M150.521 124.059C150.521 126.068 150.521 128.084 150.521 130.094C104.112 130.094 57.7032 130.094 11.2942 130.094C11.2942 128.303 11.2942 126.519 11.2942 124.729C11.4702 125.06 11.6463 125.391 11.8152 125.73C13.139 128.43 15.2584 129.917 18.3073 129.931C26.1231 129.953 33.9389 129.946 41.7547 129.946C41.8955 129.946 42.0364 129.924 42.318 129.903C41.8533 129.544 41.5223 129.255 41.1632 129.015C39.1283 127.69 37.3398 126.082 35.833 124.179C32.8193 120.372 31.1365 116.05 31.1365 111.178C31.1154 82.7599 31.1294 54.3414 31.1365 25.9228C31.1365 20.9173 31.1365 15.9118 31.1365 10.9134C38.1918 10.9134 45.2472 10.9134 52.3096 10.9134C53.4643 11.8369 54.6543 12.7252 55.7739 13.6981C58.3862 15.9753 60.4281 18.753 62.4842 21.5095C65.5894 25.669 68.7368 29.8003 71.8632 33.9457C74.4121 37.3227 76.9399 40.7067 79.4959 44.0766C83.1855 48.9481 86.8963 53.8056 90.5859 58.6842C92.825 61.6381 95.036 64.5991 97.2751 67.5531C97.3877 67.7011 97.5779 67.7998 97.8877 68.0536C97.8877 65.9668 97.8877 64.0915 97.8877 62.2233C97.8947 51.7893 97.8736 41.3553 97.9158 30.9283C97.9229 29.1799 98.0567 27.4033 98.3454 25.6761C99.0072 21.7069 100.859 18.2947 103.542 15.3267C105.098 13.5994 106.865 12.1189 108.858 10.9134C116.096 10.9134 123.328 10.9134 130.566 10.9134C130.538 14.3538 130.482 17.7871 130.482 21.2275C130.482 26.1837 130.531 31.1398 130.538 36.103C130.545 52.5859 130.552 69.0759 130.545 85.5588C130.545 91.2552 130.496 96.9516 130.503 102.641C130.51 107.061 130.63 111.475 130.552 115.895C130.517 118.024 130.313 120.188 129.897 122.275C129.369 124.884 128.581 127.436 127.362 129.896C127.56 129.91 127.7 129.939 127.848 129.939C132.939 129.931 138.03 129.953 143.121 129.896C144.036 129.889 144.994 129.706 145.867 129.417C147.676 128.803 149.021 127.591 149.817 125.828C150.063 125.25 150.282 124.651 150.521 124.059ZM104.478 129.896C104.204 129.523 104.014 129.234 103.788 128.973C101.972 126.9 100.07 124.898 98.3454 122.748C96.064 119.892 93.9305 116.917 91.7195 113.998C89.7621 111.411 87.7764 108.845 85.819 106.258C82.8827 102.366 79.9606 98.4603 77.0244 94.5616C74.2783 90.9168 71.5181 87.286 68.758 83.6482C67.1737 81.5544 65.5894 79.4605 63.9981 77.3737C63.9277 77.2821 63.7939 77.2398 63.6108 77.127C63.5967 77.4301 63.5686 77.6416 63.5686 77.8602C63.5686 82.485 63.5615 87.1098 63.5686 91.7346C63.5756 104.086 63.5826 116.445 63.6038 128.796C63.6038 130.037 63.477 129.924 64.7163 129.924C77.7145 129.931 90.7056 129.931 103.704 129.931C103.915 129.939 104.126 129.917 104.478 129.896Z" fill="#FEFEFD"/>
<path d="M31.1294 10.9063C31.1294 15.9118 31.1294 20.9173 31.1294 25.9158C31.1224 54.3343 31.1083 82.7529 31.1294 111.171C31.1364 116.043 32.8193 120.365 35.8259 124.172C37.3328 126.075 39.1212 127.683 41.1562 129.008C41.5223 129.248 41.8462 129.537 42.3109 129.896C42.0363 129.917 41.8955 129.939 41.7476 129.939C33.9318 129.939 26.116 129.946 18.3002 129.924C15.2584 129.917 13.1319 128.43 11.8082 125.723C11.6462 125.384 11.4631 125.06 11.2871 124.722C11.2871 88.3929 11.2871 52.0572 11.2871 15.7285C11.4279 15.517 11.5758 15.3196 11.7096 15.1011C12.1461 14.4031 12.5545 13.677 13.0263 13.0072C13.7586 11.9638 14.9134 11.4915 15.9766 10.8993C21.0322 10.9063 26.0808 10.9063 31.1294 10.9063Z" fill="#D12830"/>
<path d="M150.521 124.059C150.282 124.651 150.07 125.243 149.803 125.821C149.007 127.584 147.662 128.796 145.853 129.41C144.98 129.706 144.029 129.882 143.107 129.889C138.016 129.939 132.925 129.924 127.834 129.932C127.686 129.932 127.538 129.903 127.348 129.889C128.566 127.429 129.355 124.87 129.883 122.268C130.306 120.181 130.503 118.024 130.538 115.888C130.608 111.475 130.489 107.054 130.489 102.634C130.482 96.9375 130.531 91.2411 130.531 85.5518C130.538 69.0689 130.531 52.5789 130.524 36.096C130.524 31.1399 130.468 26.1837 130.468 21.2205C130.468 17.7801 130.524 14.3468 130.552 10.9064C135.601 10.9064 140.649 10.9064 145.691 10.9064C145.726 10.9346 145.747 10.9769 145.789 10.991C147.895 11.7876 149.289 13.2893 150.141 15.3479C150.204 15.503 150.387 15.6017 150.521 15.7286C150.521 15.8202 150.521 15.9048 150.521 15.9965C150.521 16.0388 150.521 16.0881 150.521 16.1304C150.521 52.1136 150.521 88.0827 150.521 124.059Z" fill="#8F9A40"/>
<path d="M108.844 10.9064C106.851 12.1119 105.084 13.5924 103.528 15.3197C100.845 18.2877 98.9931 21.707 98.3312 25.6691C98.0425 27.3963 97.9087 29.1659 97.9017 30.9213C97.8594 41.3553 97.8735 51.7893 97.8735 62.2163C97.8735 64.0916 97.8735 65.9598 97.8735 68.0466C97.5567 67.7928 97.3736 67.6941 97.2609 67.5461C95.0289 64.5921 92.8109 61.6241 90.5717 58.6772C86.8821 53.8056 83.1714 48.9482 79.4817 44.0696C76.9258 40.6997 74.398 37.3157 71.849 33.9387C68.7227 29.7933 65.5682 25.6691 62.47 21.5025C60.414 18.7389 58.372 15.9612 55.7597 13.6911C54.6402 12.7182 53.4502 11.8299 52.2954 10.9064C71.1519 10.9064 89.9944 10.9064 108.844 10.9064Z" fill="#026E97"/>
<path d="M150.521 15.7356C150.394 15.6087 150.204 15.51 150.141 15.3549C149.289 13.2963 147.902 11.7946 145.789 10.998C145.754 10.9839 145.726 10.9416 145.691 10.9134C147.296 10.9134 148.909 10.9134 150.514 10.9134C150.521 12.5137 150.521 14.1282 150.521 15.7356Z" fill="#FEFEFD"/>
<path d="M15.9838 10.9066C14.9206 11.4988 13.7658 11.9711 13.0335 13.0145C12.5617 13.6913 12.1533 14.4104 11.7168 15.1084C11.583 15.3199 11.4351 15.5243 11.2943 15.7358C11.2943 14.1284 11.2943 12.521 11.2943 10.9066C12.8575 10.9066 14.4206 10.9066 15.9838 10.9066Z" fill="#FEFEFD"/>
<path d="M104.478 129.896C104.126 129.91 103.915 129.932 103.704 129.932C90.7055 129.932 77.7144 129.932 64.7162 129.924C63.484 129.924 63.6037 130.037 63.6037 128.796C63.5896 116.445 63.5826 104.086 63.5685 91.7346C63.5685 87.1098 63.5685 82.485 63.5685 77.8602C63.5685 77.6417 63.5896 77.4302 63.6107 77.127C63.7938 77.2398 63.9276 77.2821 63.998 77.3738C65.5893 79.4606 67.1736 81.5544 68.7579 83.6483C71.511 87.2861 74.2712 90.9239 77.0243 94.5617C79.9606 98.4533 82.8827 102.366 85.8189 106.258C87.7764 108.845 89.762 111.411 91.7195 113.999C93.9304 116.917 96.0639 119.892 98.3453 122.748C100.063 124.898 101.972 126.9 103.788 128.973C104.014 129.234 104.204 129.53 104.478 129.896Z" fill="#FEA607"/>
</svg>
